<svg width="140" height="17.464" viewBox="0 0 151.479 17.464" xmlns="http://www.w3.org/2000/svg" style={{top:'.275em', position: 'relative'}}>
    <g id="svgGroup" stroke-linecap="round" fill-rule="evenodd" font-size="9pt" stroke="#8ab7c4" stroke-width="0.0mm" fill="#8ab7c4" >
        <path d="M 48.727 9.633 L 48.683 9.633 A 4.018 4.018 0 0 1 48.269 10.572 Q 47.617 11.626 46.395 11.716 A 3.181 3.181 0 0 1 46.16 11.725 Q 44.956 11.725 44.222 10.837 Q 43.551 10.025 43.494 8.697 A 5.845 5.845 0 0 1 43.488 8.446 A 6.412 6.412 0 0 1 43.656 6.943 A 4.7 4.7 0 0 1 44.503 5.146 A 3.397 3.397 0 0 1 45.585 4.208 Q 46.265 3.844 47.116 3.832 A 4.115 4.115 0 0 1 47.171 3.832 A 2.099 2.099 0 0 1 47.925 3.965 A 1.955 1.955 0 0 1 48.3 4.157 A 1.729 1.729 0 0 1 48.65 4.455 A 1.324 1.324 0 0 1 48.937 4.975 L 48.973 4.975 Q 48.987 4.774 49.037 4.227 A 193.263 193.263 0 0 1 49.061 3.964 L 50.159 3.964 Q 49.8 8.176 49.753 8.791 A 2.952 2.952 0 0 0 49.746 8.895 A 4.729 4.729 0 0 0 49.783 9.513 Q 49.871 10.178 50.171 10.475 A 0.845 0.845 0 0 0 50.792 10.714 Q 51.741 10.714 52.37 9.686 A 3.977 3.977 0 0 0 52.826 8.568 Q 52.95 8.072 52.984 7.491 A 7.838 7.838 0 0 0 52.998 7.022 A 6.228 6.228 0 0 0 52.731 5.157 A 5.02 5.02 0 0 0 51.469 3.076 A 5.041 5.041 0 0 0 49.03 1.745 Q 48.234 1.553 47.293 1.547 A 9.51 9.51 0 0 0 47.232 1.547 Q 44.622 1.547 42.917 3.375 A 6.288 6.288 0 0 0 41.239 7.274 A 8.302 8.302 0 0 0 41.212 7.945 A 7.296 7.296 0 0 0 41.459 9.894 A 5.46 5.46 0 0 0 42.833 12.3 A 5.395 5.395 0 0 0 45.786 13.833 A 7.781 7.781 0 0 0 47.206 13.957 A 10.981 10.981 0 0 0 48.865 13.838 Q 49.789 13.697 50.565 13.388 A 6.44 6.44 0 0 0 50.915 13.236 L 50.915 14.326 A 7.386 7.386 0 0 1 49.44 14.771 Q 48.724 14.912 47.895 14.956 A 14.594 14.594 0 0 1 47.118 14.977 Q 43.919 14.977 41.963 13.047 A 6.48 6.48 0 0 1 40.077 9.129 A 8.979 8.979 0 0 1 40.008 7.998 A 8.274 8.274 0 0 1 40.422 5.33 A 7.035 7.035 0 0 1 42.06 2.663 Q 44.112 0.545 47.303 0.545 A 8.255 8.255 0 0 1 49.681 0.873 A 6.603 6.603 0 0 1 52.251 2.32 A 5.866 5.866 0 0 1 54.199 6.512 A 7.972 7.972 0 0 1 54.211 6.952 A 6.94 6.94 0 0 1 54.054 8.468 A 4.816 4.816 0 0 1 53.178 10.384 Q 52.146 11.725 50.66 11.725 A 2.534 2.534 0 0 1 49.869 11.612 Q 49.053 11.343 48.82 10.438 A 3.295 3.295 0 0 1 48.727 9.633 Z M 11.162 4.324 L 12.586 4.324 L 9.888 13.324 L 8.394 13.324 L 6.539 6.882 A 3.655 3.655 0 0 1 6.447 6.462 A 4.913 4.913 0 0 1 6.398 6.047 L 6.363 6.047 A 2.293 2.293 0 0 1 6.334 6.263 Q 6.291 6.503 6.193 6.819 A 7.652 7.652 0 0 1 6.179 6.864 L 4.166 13.324 L 2.725 13.324 L 0 4.324 L 1.512 4.324 L 3.375 11.092 A 2.575 2.575 0 0 1 3.429 11.326 Q 3.452 11.449 3.469 11.592 A 6.297 6.297 0 0 1 3.498 11.9 L 3.568 11.9 A 3.385 3.385 0 0 1 3.631 11.449 A 4.37 4.37 0 0 1 3.727 11.074 L 5.801 4.324 L 7.119 4.324 L 8.982 11.109 A 3.409 3.409 0 0 1 9.042 11.376 Q 9.087 11.616 9.114 11.918 L 9.185 11.918 A 2.691 2.691 0 0 1 9.214 11.644 Q 9.237 11.492 9.278 11.321 A 5.492 5.492 0 0 1 9.334 11.109 L 11.162 4.324 Z M 33.979 8.666 L 38.479 13.324 L 36.457 13.324 L 32.484 9 L 32.449 9 L 32.449 13.324 L 31.008 13.324 L 31.008 0 L 32.449 0 L 32.449 8.446 L 32.484 8.446 L 36.264 4.324 L 38.153 4.324 L 33.979 8.666 Z M 91.644 7.822 L 91.644 13.324 L 90.202 13.324 L 90.202 8.191 Q 90.202 5.403 88.221 5.328 A 2.935 2.935 0 0 0 88.11 5.326 A 2.341 2.341 0 0 0 87.067 5.556 A 2.365 2.365 0 0 0 86.322 6.139 A 2.849 2.849 0 0 0 85.653 7.634 A 3.869 3.869 0 0 0 85.614 8.191 L 85.614 13.324 L 84.173 13.324 L 84.173 4.324 L 85.614 4.324 L 85.614 5.818 L 85.649 5.818 A 3.741 3.741 0 0 1 86.521 4.796 Q 87.309 4.169 88.404 4.118 A 4.23 4.23 0 0 1 88.603 4.113 A 3.642 3.642 0 0 1 89.533 4.225 A 2.494 2.494 0 0 1 90.861 5.067 Q 91.475 5.815 91.607 7.086 A 7.128 7.128 0 0 1 91.644 7.822 Z M 135.176 7.822 L 135.176 13.324 L 133.734 13.324 L 133.734 8.191 Q 133.734 5.403 131.753 5.328 A 2.935 2.935 0 0 0 131.643 5.326 A 2.341 2.341 0 0 0 130.599 5.556 A 2.365 2.365 0 0 0 129.854 6.139 A 2.849 2.849 0 0 0 129.185 7.634 A 3.869 3.869 0 0 0 129.146 8.191 L 129.146 13.324 L 127.705 13.324 L 127.705 4.324 L 129.146 4.324 L 129.146 5.818 L 129.182 5.818 A 3.741 3.741 0 0 1 130.054 4.796 Q 130.841 4.169 131.936 4.118 A 4.23 4.23 0 0 1 132.135 4.113 A 3.642 3.642 0 0 1 133.065 4.225 A 2.494 2.494 0 0 1 134.394 5.067 Q 135.007 5.815 135.14 7.086 A 7.128 7.128 0 0 1 135.176 7.822 Z M 81.264 4.324 L 81.264 13.324 L 79.822 13.324 L 79.822 11.9 L 79.787 11.9 Q 78.891 13.535 77.01 13.535 Q 74.022 13.535 73.809 10.228 A 8.202 8.202 0 0 1 73.793 9.703 L 73.793 4.324 L 75.226 4.324 L 75.226 9.475 Q 75.226 12.148 77.146 12.312 A 3.048 3.048 0 0 0 77.405 12.322 A 2.33 2.33 0 0 0 78.353 12.134 A 2.244 2.244 0 0 0 79.141 11.544 A 2.679 2.679 0 0 0 79.742 10.317 A 3.849 3.849 0 0 0 79.822 9.51 L 79.822 4.324 L 81.264 4.324 Z M 58.623 12.023 L 58.588 12.023 L 58.588 13.324 L 57.146 13.324 L 57.146 0 L 58.588 0 L 58.588 5.906 L 58.623 5.906 Q 59.687 4.113 61.734 4.113 A 3.982 3.982 0 0 1 62.927 4.283 A 3.116 3.116 0 0 1 64.446 5.322 A 4.164 4.164 0 0 1 65.225 6.889 Q 65.388 7.5 65.419 8.221 A 7.991 7.991 0 0 1 65.426 8.561 Q 65.426 10.819 64.327 12.177 A 3.578 3.578 0 0 1 61.7 13.521 A 5.03 5.03 0 0 1 61.321 13.535 Q 59.537 13.535 58.623 12.023 Z M 106.383 12.023 L 106.348 12.023 L 106.348 17.464 L 104.906 17.464 L 104.906 4.324 L 106.348 4.324 L 106.348 5.906 L 106.383 5.906 Q 107.446 4.113 109.494 4.113 A 4.012 4.012 0 0 1 110.686 4.281 A 3.1 3.1 0 0 1 112.21 5.322 Q 113.186 6.53 113.186 8.561 Q 113.186 10.819 112.087 12.177 A 3.578 3.578 0 0 1 109.46 13.521 A 5.03 5.03 0 0 1 109.081 13.535 Q 107.332 13.535 106.383 12.023 Z M 145.125 8.429 L 145.125 9.185 L 138.771 9.185 Q 138.806 10.688 139.579 11.505 A 2.55 2.55 0 0 0 140.972 12.254 A 3.754 3.754 0 0 0 141.706 12.322 Q 143.227 12.322 144.501 11.32 L 144.501 12.674 Q 143.458 13.431 141.826 13.522 A 8.234 8.234 0 0 1 141.363 13.535 A 4.772 4.772 0 0 1 140.073 13.37 A 3.497 3.497 0 0 1 138.366 12.309 A 4.036 4.036 0 0 1 137.524 10.752 Q 137.342 10.14 137.294 9.406 A 8.336 8.336 0 0 1 137.276 8.859 A 6.061 6.061 0 0 1 137.458 7.337 A 4.468 4.468 0 0 1 138.467 5.436 A 3.937 3.937 0 0 1 139.936 4.387 A 3.971 3.971 0 0 1 141.425 4.113 A 4.371 4.371 0 0 1 142.568 4.254 A 3.087 3.087 0 0 1 144.158 5.256 A 3.817 3.817 0 0 1 144.898 6.67 Q 145.061 7.227 145.107 7.892 A 7.801 7.801 0 0 1 145.125 8.429 Z M 121.623 11.54 L 121.623 12.911 A 4.3 4.3 0 0 1 120.095 13.461 A 5.689 5.689 0 0 1 119.162 13.535 A 4.798 4.798 0 0 1 117.721 13.328 A 3.833 3.833 0 0 1 116.055 12.283 A 4.272 4.272 0 0 1 114.94 9.944 A 5.932 5.932 0 0 1 114.873 9.035 A 6.309 6.309 0 0 1 115.052 7.49 A 4.499 4.499 0 0 1 116.147 5.462 A 4.235 4.235 0 0 1 118.72 4.169 A 5.966 5.966 0 0 1 119.549 4.113 A 5.449 5.449 0 0 1 120.632 4.216 A 4.216 4.216 0 0 1 121.641 4.553 L 121.641 6.029 Q 120.639 5.326 119.496 5.326 A 3.135 3.135 0 0 0 118.314 5.543 A 2.888 2.888 0 0 0 117.233 6.315 A 3.389 3.389 0 0 0 116.447 7.912 A 4.881 4.881 0 0 0 116.35 8.912 A 4.884 4.884 0 0 0 116.448 9.921 Q 116.585 10.573 116.916 11.069 A 2.857 2.857 0 0 0 117.18 11.408 A 2.745 2.745 0 0 0 118.945 12.295 A 3.864 3.864 0 0 0 119.408 12.322 A 3.512 3.512 0 0 0 121.296 11.765 A 4.472 4.472 0 0 0 121.623 11.54 Z M 151.479 12.006 L 151.479 13.236 A 2.031 2.031 0 0 1 150.991 13.424 Q 150.617 13.518 150.135 13.518 A 3.025 3.025 0 0 1 149.156 13.373 Q 147.771 12.9 147.771 10.881 L 147.771 5.555 L 146.224 5.555 L 146.224 4.324 L 147.771 4.324 L 147.771 2.127 L 149.212 1.661 L 149.212 4.324 L 151.479 4.324 L 151.479 5.555 L 149.212 5.555 L 149.212 10.626 A 4.214 4.214 0 0 0 149.234 11.07 Q 149.294 11.634 149.52 11.918 A 0.936 0.936 0 0 0 149.944 12.214 Q 150.104 12.272 150.303 12.293 A 2.26 2.26 0 0 0 150.539 12.305 A 1.664 1.664 0 0 0 151.054 12.228 A 1.433 1.433 0 0 0 151.479 12.006 Z M 29.443 4.289 L 29.443 5.783 A 1.243 1.243 0 0 0 29.065 5.59 Q 28.892 5.534 28.681 5.51 A 2.941 2.941 0 0 0 28.354 5.493 A 1.74 1.74 0 0 0 27.054 6.067 A 2.65 2.65 0 0 0 26.811 6.363 A 3.055 3.055 0 0 0 26.371 7.3 Q 26.191 7.926 26.191 8.736 L 26.191 13.324 L 24.75 13.324 L 24.75 4.324 L 26.191 4.324 L 26.191 6.179 L 26.227 6.179 Q 26.534 5.229 27.167 4.698 A 2.267 2.267 0 0 1 27.915 4.271 A 2.11 2.11 0 0 1 28.582 4.166 A 4.146 4.146 0 0 1 28.893 4.177 Q 29.233 4.203 29.443 4.289 Z M 72.422 4.289 L 72.422 5.783 A 1.243 1.243 0 0 0 72.044 5.59 Q 71.87 5.534 71.659 5.51 A 2.941 2.941 0 0 0 71.332 5.493 A 1.74 1.74 0 0 0 70.033 6.067 A 2.65 2.65 0 0 0 69.79 6.363 A 3.055 3.055 0 0 0 69.35 7.3 Q 69.17 7.926 69.17 8.736 L 69.17 13.324 L 67.729 13.324 L 67.729 4.324 L 69.17 4.324 L 69.17 6.179 L 69.205 6.179 Q 69.513 5.229 70.146 4.698 A 2.267 2.267 0 0 1 70.894 4.271 A 2.11 2.11 0 0 1 71.561 4.166 A 4.146 4.146 0 0 1 71.871 4.177 Q 72.212 4.203 72.422 4.289 Z M 16.555 13.35 A 5.109 5.109 0 0 0 17.965 13.535 A 5.721 5.721 0 0 0 18.792 13.477 A 4.039 4.039 0 0 0 21.23 12.239 A 4.332 4.332 0 0 0 22.277 10.28 A 6.175 6.175 0 0 0 22.447 8.789 A 8.105 8.105 0 0 0 22.44 8.435 Q 22.407 7.682 22.231 7.05 A 4.107 4.107 0 0 0 21.318 5.353 A 3.645 3.645 0 0 0 19.495 4.27 A 5.248 5.248 0 0 0 18.176 4.113 A 5.943 5.943 0 0 0 17.087 4.209 A 4.117 4.117 0 0 0 14.827 5.388 A 3.952 3.952 0 0 0 14.465 5.818 Q 13.946 6.53 13.734 7.488 A 6.675 6.675 0 0 0 13.588 8.93 A 6.138 6.138 0 0 0 13.698 10.123 A 4.267 4.267 0 0 0 14.779 12.274 A 3.858 3.858 0 0 0 16.555 13.35 Z M 96.711 13.35 A 5.109 5.109 0 0 0 98.121 13.535 A 5.721 5.721 0 0 0 98.948 13.477 A 4.039 4.039 0 0 0 101.386 12.239 A 4.332 4.332 0 0 0 102.433 10.28 A 6.175 6.175 0 0 0 102.604 8.789 A 8.105 8.105 0 0 0 102.596 8.435 Q 102.563 7.682 102.387 7.05 A 4.107 4.107 0 0 0 101.474 5.353 A 3.645 3.645 0 0 0 99.651 4.27 A 5.248 5.248 0 0 0 98.332 4.113 A 5.943 5.943 0 0 0 97.244 4.209 A 4.117 4.117 0 0 0 94.983 5.388 A 3.952 3.952 0 0 0 94.621 5.818 Q 94.102 6.53 93.891 7.488 A 6.675 6.675 0 0 0 93.744 8.93 A 6.138 6.138 0 0 0 93.855 10.123 A 4.267 4.267 0 0 0 94.935 12.274 A 3.858 3.858 0 0 0 96.711 13.35 Z M 18.07 5.326 A 3.284 3.284 0 0 0 17.083 5.467 A 2.583 2.583 0 0 0 15.873 6.271 Q 15.159 7.105 15.076 8.497 A 6.329 6.329 0 0 0 15.064 8.877 A 5.066 5.066 0 0 0 15.161 9.897 Q 15.345 10.794 15.882 11.399 Q 16.699 12.322 18.07 12.322 A 3.45 3.45 0 0 0 18.955 12.215 A 2.398 2.398 0 0 0 20.219 11.417 Q 20.83 10.681 20.944 9.439 A 6.529 6.529 0 0 0 20.971 8.842 A 6.085 6.085 0 0 0 20.894 7.84 Q 20.804 7.305 20.611 6.877 A 2.827 2.827 0 0 0 20.219 6.24 Q 19.468 5.326 18.07 5.326 Z M 98.227 5.326 A 3.284 3.284 0 0 0 97.239 5.467 A 2.583 2.583 0 0 0 96.029 6.271 Q 95.315 7.105 95.232 8.497 A 6.329 6.329 0 0 0 95.221 8.877 A 5.066 5.066 0 0 0 95.317 9.897 Q 95.502 10.794 96.038 11.399 Q 96.855 12.322 98.227 12.322 A 3.45 3.45 0 0 0 99.111 12.215 A 2.398 2.398 0 0 0 100.375 11.417 Q 100.987 10.681 101.101 9.439 A 6.529 6.529 0 0 0 101.127 8.842 A 6.085 6.085 0 0 0 101.05 7.84 Q 100.96 7.305 100.767 6.877 A 2.827 2.827 0 0 0 100.375 6.24 Q 99.624 5.326 98.227 5.326 Z M 58.588 8.394 L 58.588 9.65 A 2.845 2.845 0 0 0 58.787 10.726 A 2.651 2.651 0 0 0 59.313 11.544 A 2.39 2.39 0 0 0 61.051 12.321 A 3.127 3.127 0 0 0 61.154 12.322 A 2.74 2.74 0 0 0 62.108 12.163 A 2.375 2.375 0 0 0 63.207 11.32 Q 63.797 10.524 63.918 9.233 A 7.49 7.49 0 0 0 63.949 8.534 Q 63.949 7.031 63.255 6.179 Q 62.561 5.326 61.374 5.326 A 2.925 2.925 0 0 0 60.418 5.476 A 2.459 2.459 0 0 0 59.353 6.201 A 3.067 3.067 0 0 0 58.62 7.874 A 4.12 4.12 0 0 0 58.588 8.394 Z M 106.348 8.394 L 106.348 9.65 A 2.845 2.845 0 0 0 106.546 10.726 A 2.651 2.651 0 0 0 107.073 11.544 A 2.39 2.39 0 0 0 108.81 12.321 A 3.127 3.127 0 0 0 108.914 12.322 A 2.74 2.74 0 0 0 109.868 12.163 A 2.375 2.375 0 0 0 110.966 11.32 Q 111.557 10.524 111.678 9.233 A 7.49 7.49 0 0 0 111.709 8.534 Q 111.709 7.031 111.015 6.179 Q 110.32 5.326 109.134 5.326 A 2.925 2.925 0 0 0 108.177 5.476 A 2.459 2.459 0 0 0 107.112 6.201 A 3.067 3.067 0 0 0 106.38 7.874 A 4.12 4.12 0 0 0 106.348 8.394 Z M 47.153 4.852 A 1.931 1.931 0 0 0 45.64 5.556 A 2.926 2.926 0 0 0 45.391 5.889 A 4.039 4.039 0 0 0 44.838 7.255 Q 44.719 7.815 44.719 8.464 A 3.846 3.846 0 0 0 44.77 9.111 Q 44.871 9.702 45.171 10.099 Q 45.624 10.696 46.38 10.696 A 1.82 1.82 0 0 0 47.829 10.007 A 2.857 2.857 0 0 0 48.107 9.611 Q 48.609 8.755 48.716 7.46 A 8.898 8.898 0 0 0 48.744 6.732 Q 48.744 5.084 47.523 4.88 A 2.244 2.244 0 0 0 47.153 4.852 Z M 138.788 7.963 L 143.648 7.963 Q 143.642 7.055 143.327 6.441 A 2.166 2.166 0 0 0 143.046 6.021 A 1.941 1.941 0 0 0 141.808 5.355 A 2.818 2.818 0 0 0 141.398 5.326 A 2.324 2.324 0 0 0 139.701 6.022 A 2.821 2.821 0 0 0 139.667 6.056 A 3.078 3.078 0 0 0 138.935 7.303 A 4.124 4.124 0 0 0 138.788 7.963 Z M 123.625 13.239 A 0.931 0.931 0 0 0 124.304 13.518 A 1.169 1.169 0 0 0 124.317 13.518 A 0.956 0.956 0 0 0 125.007 13.228 A 1.168 1.168 0 0 0 125.016 13.218 A 0.946 0.946 0 0 0 125.297 12.533 Q 125.297 12.129 125.007 11.834 Q 124.717 11.54 124.304 11.54 A 0.959 0.959 0 0 0 123.981 11.593 A 0.952 0.952 0 0 0 123.614 11.834 A 0.969 0.969 0 0 0 123.328 12.533 A 1.156 1.156 0 0 0 123.328 12.54 A 0.954 0.954 0 0 0 123.614 13.228 A 1.14 1.14 0 0 0 123.625 13.239 Z" vector-effect="non-scaling-stroke"/>
    </g>
</svg>