<svg xmlns="http://www.w3.org/2000/svg" viewBox="0 0 327.168 31.874" role="img" focusable="false">
  <title>Logo Cégep André-Laurendeau</title>
  <g transform="translate(-1199.806 -8932.227)">
    <g transform="translate(1199.806 8932.227)">
      <path d="M2.529,7.94,6.964,1.41A.882.882,0,0,0,7.1.928.937.937,0,0,0,6.175,0c-.227,0-.381.061-.712.345L0,5.864,2.529,7.94" transform="translate(15.137 0)" ></path>
      <path d="M6.4,0,.374,6.083A1.118,1.118,0,0,0,0,6.9a.882.882,0,0,0,.883.9H6.4V0" transform="translate(0 14.622)" ></path>
      <path d="M1.967.358A1.321,1.321,0,0,0,.988,0,1.088,1.088,0,0,0,0,1.133V29.046l.01.066v.009a1.081,1.081,0,0,0,1.166.995A1.117,1.117,0,0,0,2.2,29.181c.334-1.495,2.832-12.7,3-13.458-.012.056-.014.077.01-.039A3.1,3.1,0,0,1,9.755,13.4l6.926,3.325L23.589,18,1.967.358" transform="translate(7.25 1.756)" ></path>
      <path d="M18.18,5.693h.336a.8.8,0,0,0,.509-.181.934.934,0,0,0,.351-.736A.938.938,0,0,0,18.6,3.79L4.222,1.138C3.017.91,2.309.917,1.487,0A5.647,5.647,0,0,0,.881,1.79L0,5.693H18.18" transform="translate(12.188 16.743)" ></path>
    </g>
    <g transform="translate(1244.108 8934.927)">
      <path d="M310.566,258.222h-1.5c-.577-2.536-1.96-3.736-4.292-3.736-3.33,0-5.417,3.185-5.417,8.185,0,5.081,2.068,8.211,5.438,8.211,2.654,0,4.251-1.762,4.618-5h1.465c-.375,4.078-2.551,6.424-5.977,6.424-4.434,0-7.191-3.691-7.191-9.582,0-5.872,2.786-9.672,7.085-9.672a5.528,5.528,0,0,1,5.766,5.168" transform="translate(-297.714 -251.258)"></path>
      <path d="M330.207,265.43h-8.6c.083,3.546,1.433,5.478,3.826,5.478,1.478,0,2.332-.611,3.1-2.177l1.359.245a4.434,4.434,0,0,1-4.432,3.241c-3.3,0-5.289-2.57-5.289-6.787,0-4.358,2.017-7.154,5.143-7.154,2.976,0,4.889,2.627,4.889,6.647v.507m-1.483-1.2c-.16-2.928-1.434-4.612-3.453-4.612-1.984,0-3.3,1.684-3.61,4.612Zm-4.223-7.969,2.519-3.567h2.205l-3.471,3.567Z" transform="translate(-304.939 -251.14)"></path>
      <path d="M348.338,261.443v1.148l-2.568-.064a4.342,4.342,0,0,1,1.212,3.22,3.614,3.614,0,0,1-1.489,3.234A7.043,7.043,0,0,1,342.868,270c-1.912.521-2.626.943-2.626,1.587,0,.591.315.7,2.448.921,2.8.277,3.569.481,4.427,1.149a3.431,3.431,0,0,1,1.245,2.737c0,2.461-2.121,4-5.517,4-3.291,0-5.442-1.51-5.442-3.8,0-1.622.792-2.629,2.673-3.32-.922-.37-1.314-.813-1.314-1.517,0-.921.6-1.5,2.246-2.148a3.717,3.717,0,0,1-2.629-3.836,4.186,4.186,0,0,1,4.405-4.46,5.725,5.725,0,0,1,1.814.281l3.74-.14m-5.554,12.572c-2.542,0-4.059.92-4.059,2.515,0,1.507,1.649,2.521,4.12,2.521,2.572,0,4.136-.987,4.136-2.551C346.981,274.88,345.546,274.015,342.783,274.015Zm-.073-11.488a2.97,2.97,0,0,0-2.9,3.185,2.794,2.794,0,0,0,2.9,2.995,2.734,2.734,0,0,0,2.835-2.995A2.9,2.9,0,0,0,342.71,262.527Z" transform="translate(-310.481 -253.911)"></path>
      <path d="M364.921,268.08h-8.6c.085,3.546,1.438,5.478,3.826,5.478,1.49,0,2.34-.611,3.108-2.177l1.359.245a4.45,4.45,0,0,1-4.442,3.241c-3.287,0-5.278-2.57-5.278-6.787,0-4.358,2.011-7.154,5.146-7.154,2.975,0,4.879,2.627,4.879,6.647v.507m-1.483-1.2c-.155-2.928-1.427-4.612-3.447-4.612-1.987,0-3.291,1.684-3.608,4.612Z" transform="translate(-316.107 -253.79)"></path>
      <path d="M373.635,280.046v-14.9a14.2,14.2,0,0,0-.257-3.822H374.8a4.824,4.824,0,0,1,.216,1.617l.034.452a3.751,3.751,0,0,1,3.609-2.466c2.856,0,4.8,2.847,4.8,7.07,0,4.191-1.812,6.87-4.7,6.87a4.061,4.061,0,0,1-3.706-2.259v7.439h-1.413m5.022-6.489c2.12,0,3.369-2.07,3.369-5.541,0-3.512-1.324-5.774-3.432-5.774s-3.6,2.347-3.6,5.667C374.99,271.266,376.46,273.557,378.657,273.557Z" transform="translate(-322.053 -253.79)"></path>
      <path d="M310.206,318.779l-1.069-3.21h-6.455l-1.1,3.21H297.9l6.6-18.154h2.784l6.63,18.154h-3.7m-4.227-12.8-2.293,6.608h4.5Z" transform="translate(-225.068 -299.036)"></path>
      <path d="M331.41,321.015v-8.033a2.217,2.217,0,1,0-4.417,0v8.033h-3.308V307.729h3.235v1.226a4.566,4.566,0,0,1,3.31-1.38,4.321,4.321,0,0,1,3.148,1.171,4.947,4.947,0,0,1,1.342,3.778v8.492H331.41" transform="translate(-233.363 -301.272)"></path>
      <path d="M351.55,318.779v-1.248a3.968,3.968,0,0,1-3.292,1.4A4.683,4.683,0,0,1,345,317.739c-1.337-1.321-1.359-3.626-1.359-5.619s.022-4.255,1.359-5.575a4.612,4.612,0,0,1,3.237-1.207,3.991,3.991,0,0,1,3.242,1.33v-6.043H354.8v18.154H351.55m-2.341-10.45c-1.988,0-2.251,1.631-2.251,3.791,0,2.176.264,3.83,2.251,3.83s2.27-1.654,2.27-3.83C351.479,309.96,351.2,308.329,349.209,308.329Z" transform="translate(-239.782 -299.036)"></path>
      <path d="M372.028,311.349a2.22,2.22,0,0,0-3.9,1.661v8h-3.314V307.729h3.242v1.279a4.464,4.464,0,0,1,3.343-1.434,4.023,4.023,0,0,1,3.139,1.251l-2.507,2.523" transform="translate(-246.592 -301.272)"></path>
      <path d="M382.29,312.42a2.743,2.743,0,0,0,2.9,2.956,3.7,3.7,0,0,0,3.016-1.249l2.015,1.962a6.326,6.326,0,0,1-5.055,2.091c-3.13,0-6.133-1.426-6.133-6.814,0-4.324,2.344-6.781,5.772-6.781,3.7,0,5.8,2.71,5.8,6.357v1.478H382.29m4.753-3.7a2.483,2.483,0,0,0-4.445,0,3.805,3.805,0,0,0-.308,1.425h5.049A3.616,3.616,0,0,0,387.043,308.72Zm-1.332-6.093h-2.22l1.629-4.344h3.495Z" transform="translate(-251.168 -298.283)"></path>
      <rect width="7.854" height="3.087" transform="translate(141.636 10.923)"></rect>
      <path d="M415.492,318.779V300.625h3.546V315.62h8.231v3.159H415.492" transform="translate(-262.894 -299.036)"></path>
      <path d="M442.353,321.015V319.87a4.053,4.053,0,0,1-3.266,1.275,4.553,4.553,0,0,1-3.39-1.17A4.241,4.241,0,0,1,434.606,317c0-2.129,1.438-3.864,4.532-3.864h3.133v-.657c0-1.459-.705-2.1-2.471-2.1a2.872,2.872,0,0,0-2.55,1.1l-2.116-2.055c1.3-1.424,2.578-1.846,4.8-1.846,3.727,0,5.663,1.586,5.663,4.7v8.745h-3.242m-.082-5.606h-2.617c-1.212,0-1.866.56-1.866,1.5,0,.921.608,1.533,1.921,1.533a2.609,2.609,0,0,0,2.078-.639,2.168,2.168,0,0,0,.484-1.684Z" transform="translate(-269.043 -301.272)"></path>
      <path d="M462.889,321.088v-1.216a4.537,4.537,0,0,1-3.31,1.371,4.308,4.308,0,0,1-3.136-1.167A4.942,4.942,0,0,1,455.1,316.3v-8.5H458.4v8.042a2.216,2.216,0,1,0,4.414,0V307.8h3.315v13.286h-3.243" transform="translate(-275.633 -301.345)"></path>
      <path d="M483.323,311.349a2.229,2.229,0,0,0-1.767-.785,2.206,2.206,0,0,0-2.135,2.445v8h-3.316V307.729h3.242v1.279a4.475,4.475,0,0,1,3.337-1.434,3.986,3.986,0,0,1,3.134,1.251l-2.5,2.523" transform="translate(-282.392 -301.272)"></path>
      <path d="M493.583,315.409a2.744,2.744,0,0,0,2.909,2.955,3.686,3.686,0,0,0,3.01-1.249l2.013,1.962a6.333,6.333,0,0,1-5.053,2.091c-3.136,0-6.148-1.426-6.148-6.814,0-4.324,2.35-6.781,5.8-6.781,3.692,0,5.79,2.71,5.79,6.357v1.478h-8.32m4.745-3.7a2.477,2.477,0,0,0-4.437,0,3.559,3.559,0,0,0-.308,1.425h5.045A3.6,3.6,0,0,0,498.328,311.709Z" transform="translate(-286.962 -301.272)"></path>
      <path d="M518.875,321.015v-8.033a2.213,2.213,0,1,0-4.408,0v8.033h-3.326V307.729h3.245v1.226a4.559,4.559,0,0,1,3.316-1.38,4.292,4.292,0,0,1,3.133,1.171,4.934,4.934,0,0,1,1.354,3.778v8.492h-3.314" transform="translate(-293.661 -301.272)"></path>
      <path d="M539.02,318.779v-1.248a3.962,3.962,0,0,1-3.28,1.4,4.7,4.7,0,0,1-3.271-1.195c-1.335-1.321-1.351-3.626-1.351-5.619s.016-4.255,1.351-5.575a4.608,4.608,0,0,1,3.234-1.207,4,4,0,0,1,3.243,1.33v-6.043h3.316v18.154H539.02m-2.353-10.45c-1.983,0-2.237,1.631-2.237,3.791,0,2.176.254,3.83,2.237,3.83s2.279-1.654,2.279-3.83C538.946,309.96,538.663,308.329,536.666,308.329Z" transform="translate(-300.087 -299.036)"></path>
      <path d="M554.57,315.409a2.742,2.742,0,0,0,2.9,2.955,3.686,3.686,0,0,0,3.015-1.249l2.006,1.962a6.311,6.311,0,0,1-5.035,2.091c-3.145,0-6.155-1.426-6.155-6.814,0-4.324,2.341-6.781,5.786-6.781,3.7,0,5.8,2.71,5.8,6.357v1.478H554.57m4.74-3.7a2.475,2.475,0,0,0-4.435,0,3.487,3.487,0,0,0-.305,1.425h5.047A3.354,3.354,0,0,0,559.31,311.709Z" transform="translate(-306.58 -301.272)"></path>
      <path d="M578.5,321.015V319.87a4.062,4.062,0,0,1-3.269,1.275,4.56,4.56,0,0,1-3.388-1.17,4.243,4.243,0,0,1-1.1-2.976c0-2.129,1.451-3.864,4.544-3.864h3.128v-.657c0-1.459-.716-2.1-2.464-2.1a2.852,2.852,0,0,0-2.551,1.1l-2.123-2.055c1.3-1.424,2.577-1.846,4.8-1.846,3.727,0,5.661,1.586,5.661,4.7v8.745H578.5m-.082-5.606H575.8c-1.205,0-1.867.56-1.867,1.5,0,.921.614,1.533,1.92,1.533a2.611,2.611,0,0,0,2.08-.639,2.178,2.178,0,0,0,.486-1.684Z" transform="translate(-312.834 -301.272)"></path>
      <path d="M599.039,321.088v-1.216a4.577,4.577,0,0,1-3.321,1.371,4.333,4.333,0,0,1-3.135-1.167,4.951,4.951,0,0,1-1.353-3.774v-8.5h3.323v8.042a2.128,2.128,0,0,0,2.192,2.415,2.151,2.151,0,0,0,2.22-2.415V307.8h3.325v13.286h-3.251" transform="translate(-319.423 -301.345)"></path>
    </g>
  </g>
</svg>