<svg version="1.1" id="Layer_1" xmlns="http://www.w3.org/2000/svg" xmlns:xlink="http://www.w3.org/1999/xlink" x="0px" y="0px"
	 width="100%" viewBox="0 0 2244 289" enable-background="new 0 0 2244 289" xml:space="preserve">
<path fill="#000000" opacity="1.000000" stroke="none" 
	d="
M1719.000000,290.000000 
	C1146.056396,290.000000 573.612793,290.000000 1.084610,290.000000 
	C1.084610,193.732635 1.084610,97.465164 1.084610,1.098847 
	C749.000000,1.098847 1497.000000,1.098847 2244.973633,1.098847 
	C2244.973633,97.387444 2244.973633,193.693726 2244.973633,290.000000 
	C2069.798096,290.000000 1894.649048,290.000000 1719.000000,290.000000 
M209.820953,32.330685 
	C200.537704,26.942680 191.254456,21.554676 181.164322,16.024881 
	C177.469254,14.706549 173.824326,13.220294 170.070358,12.099159 
	C154.436264,7.429975 138.405441,6.303692 122.190781,7.009143 
	C121.212387,7.051710 120.232460,7.174053 119.264870,7.330961 
	C113.508263,8.264482 107.755074,9.219121 101.257454,10.289628 
	C95.778847,12.182754 90.193230,13.816483 84.844009,16.023247 
	C73.862198,20.553679 63.256615,25.806755 54.254601,34.052666 
	C54.254601,34.052666 53.980286,34.166672 53.408272,34.161449 
	C52.925594,34.735111 52.442917,35.308777 51.418102,36.103989 
	C50.931229,36.697853 50.444359,37.291714 49.338322,38.166336 
	C47.520695,39.763428 45.703064,41.360519 43.274303,43.231098 
	C37.288139,51.122467 31.211058,58.946827 25.334852,66.919243 
	C13.348345,83.181686 7.985085,102.065125 6.226570,121.659630 
	C3.783220,148.885025 9.038573,174.830688 23.220369,198.663666 
	C35.689564,219.618576 52.647846,235.772354 74.221802,246.993134 
	C87.770615,254.039978 102.111214,258.458344 117.435638,260.173737 
	C131.533508,261.751862 145.529404,261.577271 159.257217,258.693390 
	C177.401184,254.881775 194.220917,247.549911 209.644669,235.842285 
	C211.135635,234.214935 212.626587,232.587585 213.826965,230.337646 
	C204.624908,219.798187 195.197037,209.443558 186.339371,198.622192 
	C183.098114,194.662415 181.048172,195.336060 177.499664,197.869675 
	C165.989624,206.087799 152.828217,209.487350 138.844574,209.988678 
	C123.857681,210.526016 110.006805,206.504669 97.170486,198.994461 
	C83.804672,191.174469 74.020584,180.194992 67.862343,165.823868 
	C60.664890,149.027634 59.356594,131.841141 63.698143,113.720474 
	C65.280708,109.504730 66.540474,105.129379 68.526459,101.113121 
	C71.085014,95.938934 74.225288,91.052406 77.720764,85.773537 
	C81.841110,81.987946 85.729477,77.905991 90.121834,74.467911 
	C109.453796,59.335979 131.533569,55.683308 154.977432,60.723568 
	C163.260391,62.504345 170.979614,66.907242 179.259521,70.693192 
	C179.878006,70.142807 180.496475,69.592422 181.676392,68.815369 
	C182.465103,67.915054 183.253815,67.014740 184.655533,65.833176 
	C185.808685,64.236115 186.961853,62.639046 188.644836,60.843994 
	C189.110733,60.267471 189.576614,59.690945 190.655518,58.833179 
	C191.808685,57.236115 192.961853,55.639046 194.676453,53.815304 
	C195.465134,52.915009 196.253815,52.014713 197.655548,50.833195 
	C198.808701,49.236126 199.961868,47.639057 201.644989,45.843857 
	C202.111053,45.267128 202.577118,44.690395 203.664124,43.825714 
	C206.160477,40.995026 208.711731,38.208447 211.072754,35.269070 
	C211.323669,34.956680 210.460648,33.749538 209.820953,32.330685 
M956.369446,35.855762 
	C953.276123,33.773525 950.303467,31.477438 947.065857,29.651024 
	C938.898376,25.043482 930.611572,20.647474 921.625305,16.027460 
	C920.797241,15.999958 919.808411,16.260984 919.164978,15.902294 
	C906.627747,8.912998 892.817932,7.431736 878.910828,7.150320 
	C871.957214,7.009610 864.971741,8.444445 857.264160,9.283331 
	C855.601013,9.862028 853.942017,10.452882 852.274109,11.017452 
	C840.179504,15.111467 828.930847,20.650036 819.258667,30.246525 
	C815.489746,35.578953 811.343079,40.688068 808.030884,46.290489 
	C801.243286,57.771477 800.629395,70.541214 800.931580,83.509895 
	C801.161865,93.390869 803.741943,102.753410 808.237000,111.199791 
	C819.360596,132.101334 838.017212,143.631775 860.176697,149.945938 
	C874.663696,154.073883 888.868835,158.604706 901.018738,167.980469 
	C907.507568,172.987808 913.298157,179.251099 912.483521,187.446564 
	C911.432434,198.021606 905.604614,207.485748 894.567932,209.601089 
	C885.436584,211.351257 875.471008,210.890411 866.211914,209.364685 
	C849.492920,206.609695 835.224365,198.345169 823.487549,185.980560 
	C821.835938,184.240646 820.444275,183.080215 818.139282,185.290695 
	C806.906067,196.063278 795.572754,206.731461 783.850220,217.839005 
	C786.592407,220.414200 789.357056,222.868011 791.961060,225.481857 
	C800.839172,234.393509 811.146362,241.360550 822.282593,246.989029 
	C846.507141,259.232635 872.223816,263.646118 899.117676,259.941376 
	C919.635803,257.114899 935.840332,246.587875 947.923523,229.997864 
	C958.057983,216.083481 963.041260,200.543076 962.129517,182.996826 
	C961.255554,166.177399 954.936157,151.909729 943.988098,139.578690 
	C929.644775,123.423485 910.971008,114.065498 890.993713,106.959671 
	C881.367249,103.535568 871.694885,100.240181 861.726196,96.289261 
	C859.520203,94.843513 857.314270,93.397758 854.988464,91.196365 
	C854.141479,89.780289 852.821716,88.452492 852.537781,86.931320 
	C851.740967,82.663536 851.371460,78.315994 850.988037,73.266228 
	C852.030334,70.858147 853.072693,68.450073 854.736755,65.758041 
	C868.564270,54.128555 884.055908,54.752075 899.405823,61.087852 
	C909.677612,65.327606 919.089233,71.651405 929.194519,77.684265 
	C931.822632,80.097176 933.360535,79.243507 934.706726,75.731873 
	C935.097473,74.947754 935.488220,74.163643 936.351746,73.067444 
	C936.606140,72.392326 936.860474,71.717216 937.706726,70.731880 
	C938.097473,69.947769 938.488220,69.163651 939.351807,68.067459 
	C939.606140,67.392342 939.860535,66.717232 940.710571,65.726685 
	C941.846191,63.831055 942.981812,61.935421 944.668152,59.783890 
	C944.817078,59.203281 944.966003,58.622677 945.706787,57.731812 
	C946.097534,56.947685 946.488281,56.163559 947.351807,55.067383 
	C947.606140,54.392288 947.860474,53.717197 948.723145,52.709698 
	C949.775146,50.932941 950.827087,49.156189 952.351807,47.067387 
	C952.606140,46.392292 952.860474,45.717197 953.706848,44.731808 
	C954.097656,43.947540 954.488464,43.163269 955.396301,42.029942 
	C955.945007,40.724777 956.493713,39.419613 957.594666,37.855110 
	C957.396179,37.292297 957.197754,36.729481 956.369446,35.855762 
M2237.988525,24.174988 
	C2234.468018,15.911963 2228.119873,11.133755 2218.636230,9.027813 
	C2214.757812,9.074097 2210.879150,9.120380 2206.285400,9.265320 
	C2202.485596,11.829318 2198.685547,14.393316 2194.250244,17.254816 
	C2187.264404,24.915054 2185.419434,33.611485 2188.818359,43.454388 
	C2191.730225,51.886627 2196.957275,57.851234 2206.387939,60.764477 
	C2210.150146,60.842728 2214.172852,61.803898 2217.613281,60.790150 
	C2222.641846,59.308441 2227.253174,56.409550 2232.667969,53.822372 
	C2234.817139,49.895592 2236.966064,45.968807 2239.791504,41.585609 
	C2239.541748,37.428516 2239.292236,33.271423 2239.529541,28.916817 
	C2239.367188,28.572906 2239.204590,28.228996 2239.005615,27.200912 
	C2238.685547,26.430311 2238.365723,25.659712 2237.988525,24.174988 
M2180.000000,139.351013 
	C2179.645996,130.919830 2180.104004,122.357361 2178.766602,114.085220 
	C2176.098633,97.588104 2170.686279,81.906929 2161.880371,67.529213 
	C2149.689453,47.625214 2133.486328,31.932827 2112.845947,20.999298 
	C2086.748047,7.174759 2059.127686,2.873327 2029.975586,7.954898 
	C2004.392578,12.414359 1982.276123,23.861738 1963.963745,41.909462 
	C1955.643921,50.109055 1949.210938,60.254021 1942.188599,69.714409 
	C1940.702148,71.716957 1939.906372,72.339073 1937.513794,71.241425 
	C1924.922363,65.464928 1912.262329,59.836285 1899.585449,54.248329 
	C1886.798218,48.611774 1873.963379,43.082916 1861.236084,37.544575 
	C1859.739746,18.402447 1846.350342,9.653786 1831.321655,10.803196 
	C1814.044556,12.124564 1802.770996,31.901501 1810.761841,48.454178 
	C1817.544434,62.503586 1835.335938,67.298698 1849.943848,58.633602 
	C1851.630005,57.633392 1854.450195,57.092556 1856.144043,57.792412 
	C1867.584229,62.518898 1878.863525,67.634895 1890.192993,72.629234 
	C1903.730347,78.596848 1917.265869,84.568871 1931.249756,90.736351 
	C1930.920532,92.938248 1930.774536,95.226341 1930.220581,97.411003 
	C1925.867920,114.575935 1923.641968,131.977966 1926.140747,149.585037 
	C1928.607910,166.969238 1933.989746,183.503937 1943.230713,198.606186 
	C1955.587402,218.800247 1972.021362,234.867554 1992.948120,245.897308 
	C2017.685791,258.935608 2044.031006,263.110748 2071.821045,259.089386 
	C2099.181396,255.130173 2122.492188,243.099030 2142.129395,224.144821 
	C2154.443848,212.258575 2163.916748,198.093964 2170.461426,182.104691 
	C2175.955078,168.683884 2178.796387,154.692490 2180.000000,139.351013 
M255.491089,191.991531 
	C267.564575,215.641632 285.739471,233.380264 308.912842,245.896423 
	C329.786346,257.170380 352.167419,261.571655 376.004425,260.189667 
	C392.633667,259.225586 408.221222,255.266479 423.163910,248.344727 
	C441.097015,240.037750 455.807220,227.632492 468.209137,212.326111 
	C485.930573,190.454437 494.694336,165.170197 495.779144,137.363342 
	C496.165497,127.459435 494.557922,117.366005 492.914978,107.516808 
	C488.897827,83.434410 477.402252,62.859951 460.660004,45.498753 
	C452.984680,37.539665 443.937408,30.647381 434.684784,24.521076 
	C417.476990,13.127531 397.971100,7.626148 377.531342,6.146484 
	C365.546600,5.278890 353.583374,6.286456 341.647186,8.827240 
	C307.833649,16.024920 281.377075,34.256912 262.420227,62.570675 
	C245.856598,87.309921 238.730606,114.920311 241.804749,145.094269 
	C243.473099,161.469986 247.970261,176.704941 255.491089,191.991531 
M621.517212,144.013077 
	C623.319153,146.147385 625.014404,148.383636 626.941162,150.398605 
	C636.006287,159.878967 645.137634,169.295914 654.239990,178.740677 
	C662.879822,187.705551 671.474609,196.714188 680.157776,205.636917 
	C694.535156,220.411011 709.384155,234.755768 723.182312,250.050186 
	C729.132751,256.645844 735.440186,256.386566 742.619751,255.686478 
	C742.619751,173.629623 742.619751,91.918144 742.619751,10.263663 
	C725.971558,10.263663 709.704895,10.263663 692.740479,10.263663 
	C692.740479,54.975456 692.740479,99.428223 692.740479,144.732071 
	C691.269958,143.545715 690.588806,143.097275 690.028381,142.529617 
	C665.125916,117.306000 640.282593,92.023804 615.324829,66.855026 
	C597.021484,48.396984 578.580811,30.075056 560.149292,11.744843 
	C559.301331,10.901575 557.960938,10.131504 556.817383,10.082250 
	C552.371460,9.890765 547.912415,10.004250 543.298462,10.004250 
	C543.298462,92.205673 543.298462,173.917130 543.298462,255.641388 
	C559.984192,255.641388 576.368896,255.641388 593.250671,255.641388 
	C593.250671,208.929016 593.250671,162.573425 593.250671,119.183151 
	C601.630310,126.527557 611.319275,135.019608 621.517212,144.013077 
M1218.000000,158.500000 
	C1218.000000,190.917679 1218.000000,223.335358 1218.000000,255.761841 
	C1272.980713,255.761841 1327.244507,255.761841 1381.701172,255.761841 
	C1381.701172,239.138367 1381.701172,222.754059 1381.701172,205.828201 
	C1343.686279,205.828201 1305.966797,205.828201 1268.241211,205.828201 
	C1268.241211,188.350998 1268.241211,171.417740 1268.241211,153.942184 
	C1293.531250,153.942184 1318.585938,153.942184 1343.638306,153.942184 
	C1343.638306,137.010406 1343.638306,120.625435 1343.638306,103.877975 
	C1318.344116,103.877975 1293.409302,103.877975 1268.305664,103.877975 
	C1268.305664,89.124771 1268.305664,74.740227 1268.305664,59.814789 
	C1306.660645,59.814789 1344.713379,59.814789 1382.752075,59.814789 
	C1382.752075,43.003983 1382.752075,26.737154 1382.752075,10.304537 
	C1327.788940,10.304537 1273.073975,10.304537 1218.000000,10.304537 
	C1218.000000,59.572132 1218.000000,108.536064 1218.000000,158.500000 
M1063.000000,194.500000 
	C1063.000000,214.913467 1063.000000,235.326950 1063.000000,255.594742 
	C1080.087280,255.594742 1096.469116,255.594742 1113.178711,255.594742 
	C1113.178711,190.277206 1113.178711,125.364372 1113.178711,59.917870 
	C1135.558350,59.917870 1157.608521,59.917870 1179.637207,59.917870 
	C1179.637207,42.999191 1179.637207,26.618643 1179.637207,10.393774 
	C1117.908691,10.393774 1056.543823,10.393774 995.271118,10.393774 
	C995.271118,27.051666 995.271118,43.314514 995.271118,60.108765 
	C1017.918701,60.108765 1040.301270,60.108765 1063.000000,60.108765 
	C1063.000000,104.928818 1063.000000,149.214417 1063.000000,194.500000 
M1667.000000,154.500000 
	C1667.000000,106.416527 1667.000000,58.333050 1667.000000,10.242184 
	C1650.016235,10.242184 1633.749390,10.242184 1617.297852,10.242184 
	C1617.297852,92.198814 1617.297852,173.913040 1617.297852,255.643585 
	C1664.312988,255.643585 1711.029419,255.643585 1757.759277,255.643585 
	C1757.759277,239.019135 1757.759277,222.752289 1757.759277,205.942902 
	C1727.469604,205.942902 1697.414917,205.942902 1667.000000,205.942902 
	C1667.000000,188.767502 1667.000000,172.133743 1667.000000,154.500000 
M1539.500000,256.000000 
	C1551.588989,256.000000 1563.677979,256.000000 1575.754883,256.000000 
	C1575.754883,239.010361 1575.754883,222.743454 1575.754883,205.934204 
	C1545.460693,205.934204 1515.406128,205.934204 1484.817139,205.934204 
	C1484.817139,140.341370 1484.817139,75.290894 1484.817139,10.246471 
	C1468.007446,10.246471 1451.740601,10.246471 1435.302246,10.246471 
	C1435.302246,92.207443 1435.302246,173.921692 1435.302246,256.000000 
	C1469.902100,256.000000 1504.201050,256.000000 1539.500000,256.000000 
M1861.000000,161.500000 
	C1861.000000,141.086838 1861.000000,120.673676 1861.000000,100.404388 
	C1843.913940,100.404388 1827.532349,100.404388 1811.262451,100.404388 
	C1811.262451,152.391861 1811.262451,203.974564 1811.262451,255.684052 
	C1827.906128,255.684052 1844.285767,255.684052 1861.000000,255.684052 
	C1861.000000,224.412872 1861.000000,193.456436 1861.000000,161.500000 
z"/>
<path fill="#197DE1" opacity="1.000000" stroke="none" 
	d="
M2180.000000,139.830627 
	C2178.796387,154.692490 2175.955078,168.683884 2170.461426,182.104691 
	C2163.916748,198.093964 2154.443848,212.258575 2142.129395,224.144821 
	C2122.492188,243.099030 2099.181396,255.130173 2071.821045,259.089386 
	C2044.031006,263.110748 2017.685791,258.935608 1992.948120,245.897308 
	C1972.021362,234.867554 1955.587402,218.800247 1943.230713,198.606186 
	C1933.989746,183.503937 1928.607910,166.969238 1926.140747,149.585037 
	C1923.641968,131.977966 1925.867920,114.575935 1930.220581,97.411003 
	C1930.774536,95.226341 1930.920532,92.938248 1931.249756,90.736351 
	C1917.265869,84.568871 1903.730347,78.596848 1890.192993,72.629234 
	C1878.863525,67.634895 1867.584229,62.518898 1856.144043,57.792412 
	C1854.450195,57.092556 1851.630005,57.633392 1849.943848,58.633602 
	C1835.335938,67.298698 1817.544434,62.503586 1810.761841,48.454178 
	C1802.770996,31.901501 1814.044556,12.124564 1831.321655,10.803196 
	C1846.350342,9.653786 1859.739746,18.402447 1861.236084,37.544575 
	C1873.963379,43.082916 1886.798218,48.611774 1899.585449,54.248329 
	C1912.262329,59.836285 1924.922363,65.464928 1937.513794,71.241425 
	C1939.906372,72.339073 1940.702148,71.716957 1942.188599,69.714409 
	C1949.210938,60.254021 1955.643921,50.109055 1963.963745,41.909462 
	C1982.276123,23.861738 2004.392578,12.414359 2029.975586,7.954898 
	C2059.127686,2.873327 2086.748047,7.174759 2112.845947,20.999298 
	C2133.486328,31.932827 2149.689453,47.625214 2161.880371,67.529213 
	C2170.686279,81.906929 2176.098633,97.588104 2178.766602,114.085220 
	C2180.104004,122.357361 2179.645996,130.919830 2180.000000,139.830627 
M2047.042847,57.458088 
	C2043.658203,57.973076 2040.224609,58.274704 2036.896973,59.038338 
	C2018.146606,63.341228 2002.566284,72.948921 1991.311401,88.525284 
	C1978.869263,105.744881 1974.405396,125.150124 1977.975342,146.285568 
	C1981.152222,165.093704 1990.421753,180.597366 2005.061890,192.255936 
	C2022.449829,206.102646 2042.527710,211.790604 2064.939209,208.060623 
	C2085.521973,204.635010 2101.890381,194.433212 2113.972656,177.688187 
	C2125.029541,162.364471 2130.134521,145.291107 2128.127686,126.074265 
	C2126.456543,110.071800 2120.709473,95.947166 2110.322998,83.977783 
	C2093.944092,65.103119 2072.748535,56.642284 2047.042847,57.458088 
z"/>
<path fill="#197DE1" opacity="1.000000" stroke="none" 
	d="
M255.281006,191.674744 
	C247.970261,176.704941 243.473099,161.469986 241.804749,145.094269 
	C238.730606,114.920311 245.856598,87.309921 262.420227,62.570675 
	C281.377075,34.256912 307.833649,16.024920 341.647186,8.827240 
	C353.583374,6.286456 365.546600,5.278890 377.531342,6.146484 
	C397.971100,7.626148 417.476990,13.127531 434.684784,24.521076 
	C443.937408,30.647381 452.984680,37.539665 460.660004,45.498753 
	C477.402252,62.859951 488.897827,83.434410 492.914978,107.516808 
	C494.557922,117.366005 496.165497,127.459435 495.779144,137.363342 
	C494.694336,165.170197 485.930573,190.454437 468.209137,212.326111 
	C455.807220,227.632492 441.097015,240.037750 423.163910,248.344727 
	C408.221222,255.266479 392.633667,259.225586 376.004425,260.189667 
	C352.167419,261.571655 329.786346,257.170380 308.912842,245.896423 
	C285.739471,233.380264 267.564575,215.641632 255.281006,191.674744 
M390.335999,205.991013 
	C410.661194,199.461197 426.074677,186.730515 435.880402,167.935913 
	C446.528076,147.527588 447.228485,126.054749 438.772980,104.747368 
	C431.542023,86.525726 418.675507,72.774353 400.856415,64.610741 
	C388.187103,58.806427 374.782135,55.928158 360.364899,57.809174 
	C343.704803,59.982819 329.039948,66.045387 317.096008,77.576744 
	C297.455750,96.538506 289.164581,119.599236 293.953918,146.958344 
	C297.516998,167.312439 308.242371,183.175201 324.674713,194.988388 
	C344.306335,209.101471 366.137146,212.669189 390.335999,205.991013 
z"/>
<path fill="#197DE1" opacity="1.000000" stroke="none" 
	d="
M621.262756,143.762360 
	C611.319275,135.019608 601.630310,126.527557 593.250671,119.183151 
	C593.250671,162.573425 593.250671,208.929016 593.250671,255.641388 
	C576.368896,255.641388 559.984192,255.641388 543.298462,255.641388 
	C543.298462,173.917130 543.298462,92.205673 543.298462,10.004250 
	C547.912415,10.004250 552.371460,9.890765 556.817383,10.082250 
	C557.960938,10.131504 559.301331,10.901575 560.149292,11.744843 
	C578.580811,30.075056 597.021484,48.396984 615.324829,66.855026 
	C640.282593,92.023804 665.125916,117.306000 690.028381,142.529617 
	C690.588806,143.097275 691.269958,143.545715 692.740479,144.732071 
	C692.740479,99.428223 692.740479,54.975456 692.740479,10.263663 
	C709.704895,10.263663 725.971558,10.263663 742.619751,10.263663 
	C742.619751,91.918144 742.619751,173.629623 742.619751,255.686478 
	C735.440186,256.386566 729.132751,256.645844 723.182312,250.050186 
	C709.384155,234.755768 694.535156,220.411011 680.157776,205.636917 
	C671.474609,196.714188 662.879822,187.705551 654.239990,178.740677 
	C645.137634,169.295914 636.006287,159.878967 626.941162,150.398605 
	C625.014404,148.383636 623.319153,146.147385 621.262756,143.762360 
z"/>
<path fill="#197DE1" opacity="1.000000" stroke="none" 
	d="
M1218.000000,158.000000 
	C1218.000000,108.536064 1218.000000,59.572132 1218.000000,10.304537 
	C1273.073975,10.304537 1327.788940,10.304537 1382.752075,10.304537 
	C1382.752075,26.737154 1382.752075,43.003983 1382.752075,59.814789 
	C1344.713379,59.814789 1306.660645,59.814789 1268.305664,59.814789 
	C1268.305664,74.740227 1268.305664,89.124771 1268.305664,103.877975 
	C1293.409302,103.877975 1318.344116,103.877975 1343.638306,103.877975 
	C1343.638306,120.625435 1343.638306,137.010406 1343.638306,153.942184 
	C1318.585938,153.942184 1293.531250,153.942184 1268.241211,153.942184 
	C1268.241211,171.417740 1268.241211,188.350998 1268.241211,205.828201 
	C1305.966797,205.828201 1343.686279,205.828201 1381.701172,205.828201 
	C1381.701172,222.754059 1381.701172,239.138367 1381.701172,255.761841 
	C1327.244507,255.761841 1272.980713,255.761841 1218.000000,255.761841 
	C1218.000000,223.335358 1218.000000,190.917679 1218.000000,158.000000 
z"/>
<path fill="#197DE1" opacity="1.000000" stroke="none" 
	d="
M944.117432,60.039810 
	C942.981812,61.935421 941.846191,63.831055 940.120605,65.922485 
	C939.313354,66.872025 939.096130,67.625771 938.878906,68.379524 
	C938.488220,69.163651 938.097473,69.947769 937.118713,70.925095 
	C936.313477,71.872047 936.096252,72.625793 935.879028,73.379532 
	C935.488220,74.163643 935.097473,74.947754 934.030396,75.913025 
	C931.864624,76.410324 930.375183,76.726479 928.885742,77.042633 
	C919.089233,71.651405 909.677612,65.327606 899.405823,61.087852 
	C884.055908,54.752075 868.564270,54.128555 854.083923,65.986465 
	C850.415222,68.092491 847.328003,69.946281 850.833374,73.999908 
	C851.371460,78.315994 851.740967,82.663536 852.537781,86.931320 
	C852.821716,88.452492 854.141479,89.780289 854.767578,91.760590 
	C851.362732,94.737595 851.918457,97.042694 855.400757,97.944000 
	C857.390442,98.458992 859.814697,97.294701 862.043335,96.886520 
	C871.694885,100.240181 881.367249,103.535568 890.993713,106.959671 
	C910.971008,114.065498 929.644775,123.423485 943.988098,139.578690 
	C954.936157,151.909729 961.255554,166.177399 962.129517,182.996826 
	C963.041260,200.543076 958.057983,216.083481 947.923523,229.997864 
	C935.840332,246.587875 919.635803,257.114899 899.117676,259.941376 
	C872.223816,263.646118 846.507141,259.232635 822.282593,246.989029 
	C811.146362,241.360550 800.839172,234.393509 791.961060,225.481857 
	C789.357056,222.868011 786.592407,220.414200 783.850220,217.839005 
	C795.572754,206.731461 806.906067,196.063278 818.139282,185.290695 
	C820.444275,183.080215 821.835938,184.240646 823.487549,185.980560 
	C835.224365,198.345169 849.492920,206.609695 866.211914,209.364685 
	C875.471008,210.890411 885.436584,211.351257 894.567932,209.601089 
	C905.604614,207.485748 911.432434,198.021606 912.483521,187.446564 
	C913.298157,179.251099 907.507568,172.987808 901.018738,167.980469 
	C888.868835,158.604706 874.663696,154.073883 860.176697,149.945938 
	C838.017212,143.631775 819.360596,132.101334 808.237000,111.199791 
	C803.741943,102.753410 801.161865,93.390869 800.931580,83.509895 
	C800.629395,70.541214 801.243286,57.771477 808.030884,46.290489 
	C811.343079,40.688068 815.489746,35.578953 819.969360,30.103867 
	C822.090637,29.573744 823.615051,29.410847 824.893860,28.763100 
	C834.653748,23.819517 844.417053,18.876242 854.043640,13.681448 
	C855.694092,12.790808 856.698059,10.702010 858.000732,9.166679 
	C864.971741,8.444445 871.957214,7.009610 878.910828,7.150320 
	C892.817932,7.431736 906.627747,8.912998 919.164978,15.902294 
	C919.808411,16.260984 920.797241,15.999958 921.976196,16.495407 
	C923.614380,18.507307 924.656677,20.384268 926.229004,21.540600 
	C935.741760,28.536898 946.972717,33.163727 954.879272,42.378986 
	C954.488464,43.163269 954.097656,43.947540 953.118774,44.925053 
	C952.313416,45.872005 952.096191,46.625713 951.879028,47.379425 
	C950.827087,49.156189 949.775146,50.932941 948.126892,52.914001 
	C947.313416,53.872009 947.096252,54.625717 946.879028,55.379433 
	C946.488281,56.163559 946.097534,56.947685 945.138428,57.910149 
	C944.075684,58.421654 943.581238,58.754826 943.086792,59.087982 
	C943.430359,59.405254 943.773926,59.722542 944.117432,60.039810 
z"/>
<path fill="#197DE1" opacity="1.000000" stroke="none" 
	d="
M63.045967,114.110535 
	C59.356594,131.841141 60.664890,149.027634 67.862343,165.823868 
	C74.020584,180.194992 83.804672,191.174469 97.170486,198.994461 
	C110.006805,206.504669 123.857681,210.526016 138.844574,209.988678 
	C152.828217,209.487350 165.989624,206.087799 177.499664,197.869675 
	C181.048172,195.336060 183.098114,194.662415 186.339371,198.622192 
	C195.197037,209.443558 204.624908,219.798187 213.593384,230.692657 
	C210.306473,231.361130 208.885391,233.065399 209.042496,236.114426 
	C194.220917,247.549911 177.401184,254.881775 159.257217,258.693390 
	C145.529404,261.577271 131.533508,261.751862 117.435638,260.173737 
	C102.111214,258.458344 87.770615,254.039978 74.221802,246.993134 
	C52.647846,235.772354 35.689564,219.618576 23.220369,198.663666 
	C9.038573,174.830688 3.783220,148.885025 6.226570,121.659630 
	C7.985085,102.065125 13.348345,83.181686 25.334852,66.919243 
	C31.211058,58.946827 37.288139,51.122467 43.979881,43.095852 
	C48.286461,43.184155 49.886082,41.328636 49.957489,37.885578 
	C50.444359,37.291714 50.931229,36.697853 51.830475,36.264000 
	C52.752514,36.651634 53.262180,36.879265 53.771847,37.106895 
	C53.841328,36.126820 53.910805,35.146748 53.980286,34.166672 
	C53.980286,34.166672 54.254601,34.052666 54.774433,34.232868 
	C56.534744,34.175938 57.992348,34.280022 58.982712,33.649834 
	C71.293686,25.816072 84.119003,19.105330 98.055161,14.561410 
	C99.675713,14.033026 100.700012,11.675941 102.000740,10.166665 
	C107.755074,9.219121 113.508263,8.264482 119.264870,7.330961 
	C120.232460,7.174053 121.212387,7.051710 122.190781,7.009143 
	C138.405441,6.303692 154.436264,7.429975 170.070358,12.099159 
	C173.824326,13.220294 177.469254,14.706549 181.445038,16.391068 
	C182.320343,18.077246 182.548691,19.932390 183.568832,20.630541 
	C190.284042,25.226118 197.169830,29.572412 204.177002,34.285500 
	C207.811874,38.286896 202.558777,40.806210 203.043182,44.113663 
	C202.577118,44.690395 202.111053,45.267128 201.036697,46.030533 
	C199.299774,47.849613 198.171143,49.482018 197.042511,51.114418 
	C196.253815,52.014713 195.465134,52.915009 194.052429,54.016258 
	C192.299774,55.849613 191.171143,57.482018 190.042511,59.114422 
	C189.576614,59.690945 189.110733,60.267471 188.036606,61.030602 
	C186.299744,62.849613 185.171127,64.482010 184.042511,66.114418 
	C183.253815,67.014740 182.465103,67.915054 181.102737,69.011810 
	C180.004791,69.509834 179.480499,69.811409 178.956223,70.112991 
	C170.979614,66.907242 163.260391,62.504345 154.977432,60.723568 
	C131.533569,55.683308 109.453796,59.335979 90.121834,74.467911 
	C85.729477,77.905991 81.841110,81.987946 77.080887,85.991562 
	C68.691078,92.260696 64.965218,100.767296 62.277016,109.825462 
	C61.908176,111.068291 62.759537,112.673241 63.045967,114.110535 
z"/>
<path fill="#197DE1" opacity="1.000000" stroke="none" 
	d="
M1063.000000,194.000000 
	C1063.000000,149.214417 1063.000000,104.928818 1063.000000,60.108765 
	C1040.301270,60.108765 1017.918701,60.108765 995.271118,60.108765 
	C995.271118,43.314514 995.271118,27.051666 995.271118,10.393774 
	C1056.543823,10.393774 1117.908691,10.393774 1179.637207,10.393774 
	C1179.637207,26.618643 1179.637207,42.999191 1179.637207,59.917870 
	C1157.608521,59.917870 1135.558350,59.917870 1113.178711,59.917870 
	C1113.178711,125.364372 1113.178711,190.277206 1113.178711,255.594742 
	C1096.469116,255.594742 1080.087280,255.594742 1063.000000,255.594742 
	C1063.000000,235.326950 1063.000000,214.913467 1063.000000,194.000000 
z"/>
<path fill="#197DE1" opacity="1.000000" stroke="none" 
	d="
M1667.000000,155.000000 
	C1667.000000,172.133743 1667.000000,188.767502 1667.000000,205.942902 
	C1697.414917,205.942902 1727.469604,205.942902 1757.759277,205.942902 
	C1757.759277,222.752289 1757.759277,239.019135 1757.759277,255.643585 
	C1711.029419,255.643585 1664.312988,255.643585 1617.297852,255.643585 
	C1617.297852,173.913040 1617.297852,92.198814 1617.297852,10.242184 
	C1633.749390,10.242184 1650.016235,10.242184 1667.000000,10.242184 
	C1667.000000,58.333050 1667.000000,106.416527 1667.000000,155.000000 
z"/>
<path fill="#197DE1" opacity="1.000000" stroke="none" 
	d="
M1539.000000,256.000000 
	C1504.201050,256.000000 1469.902100,256.000000 1435.302246,256.000000 
	C1435.302246,173.921692 1435.302246,92.207443 1435.302246,10.246471 
	C1451.740601,10.246471 1468.007446,10.246471 1484.817139,10.246471 
	C1484.817139,75.290894 1484.817139,140.341370 1484.817139,205.934204 
	C1515.406128,205.934204 1545.460693,205.934204 1575.754883,205.934204 
	C1575.754883,222.743454 1575.754883,239.010361 1575.754883,256.000000 
	C1563.677979,256.000000 1551.588989,256.000000 1539.000000,256.000000 
z"/>
<path fill="#197DE1" opacity="1.000000" stroke="none" 
	d="
M1861.000000,162.000000 
	C1861.000000,193.456436 1861.000000,224.412872 1861.000000,255.684052 
	C1844.285767,255.684052 1827.906128,255.684052 1811.262451,255.684052 
	C1811.262451,203.974564 1811.262451,152.391861 1811.262451,100.404388 
	C1827.532349,100.404388 1843.913940,100.404388 1861.000000,100.404388 
	C1861.000000,120.673676 1861.000000,141.086838 1861.000000,162.000000 
z"/>
<path fill="#197DE1" opacity="1.000000" stroke="none" 
	d="
M2205.890137,60.046589 
	C2196.957275,57.851234 2191.730225,51.886627 2188.818359,43.454388 
	C2185.419434,33.611485 2187.264404,24.915054 2194.968262,17.107811 
	C2200.587646,16.003260 2205.268066,14.724718 2207.000732,9.166666 
	C2210.879150,9.120380 2214.757812,9.074097 2218.873047,9.462000 
	C2218.393311,11.636646 2217.676758,13.377105 2216.530029,15.068721 
	C2207.895996,14.081030 2202.399658,18.839163 2196.772949,24.128517 
	C2193.417480,26.092455 2190.326416,27.944231 2193.902832,32.428177 
	C2193.734131,44.280762 2199.802246,51.102585 2209.862061,55.163818 
	C2208.419678,56.978970 2207.155029,58.512791 2205.890137,60.046589 
z"/>
<path fill="#197DE1" opacity="1.000000" stroke="none" 
	d="
M2206.139160,60.405544 
	C2207.155029,58.512791 2208.419678,56.978970 2210.273926,55.212700 
	C2212.242188,55.042385 2213.620850,55.104527 2215.067871,55.492401 
	C2215.990723,56.377674 2216.860107,57.438244 2217.697998,57.414272 
	C2222.621094,57.273449 2226.218994,55.276485 2227.095703,49.578300 
	C2232.004639,44.435085 2234.249023,38.618038 2233.991211,31.596590 
	C2233.982422,31.359844 2233.956543,30.886724 2233.957520,30.672739 
	C2233.958496,30.458754 2233.880371,30.037949 2234.115723,29.805866 
	C2235.582520,28.012234 2236.813965,26.450687 2238.045654,24.889126 
	C2238.365723,25.659712 2238.685547,26.430311 2239.017822,27.850342 
	C2239.033936,28.704622 2239.038086,28.909473 2239.042480,29.114326 
	C2239.292236,33.271423 2239.541748,37.428516 2239.117188,41.905701 
	C2236.309082,46.188778 2234.175781,50.151756 2232.042236,54.114723 
	C2227.253174,56.409550 2222.641846,59.308441 2217.613281,60.790150 
	C2214.172852,61.803898 2210.150146,60.842728 2206.139160,60.405544 
z"/>
<path fill="#197DE1" opacity="1.000000" stroke="none" 
	d="
M955.137756,42.204460 
	C946.972717,33.163727 935.741760,28.536898 926.229004,21.540600 
	C924.656677,20.384268 923.614380,18.507307 922.349854,16.565020 
	C930.611572,20.647474 938.898376,25.043482 947.065857,29.651024 
	C950.303467,31.477438 953.276123,33.773525 956.688538,36.335907 
	C957.019226,37.248856 957.030823,37.681656 957.042480,38.114452 
	C956.493713,39.419613 955.945007,40.724777 955.137756,42.204460 
z"/>
<path fill="#197DE1" opacity="1.000000" stroke="none" 
	d="
M2238.017090,24.532064 
	C2236.813965,26.450687 2235.582520,28.012234 2233.796875,29.654800 
	C2230.026123,22.400463 2225.015381,17.063385 2216.960205,15.117540 
	C2217.676758,13.377105 2218.393311,11.636646 2219.300293,9.531427 
	C2228.119873,11.133755 2234.468018,15.911963 2238.017090,24.532064 
z"/>
<path fill="#197DE1" opacity="1.000000" stroke="none" 
	d="
M101.629097,10.228146 
	C100.700012,11.675941 99.675713,14.033026 98.055161,14.561410 
	C84.119003,19.105330 71.293686,25.816072 58.982712,33.649834 
	C57.992348,34.280022 56.534744,34.175938 54.913826,34.284161 
	C63.256615,25.806755 73.862198,20.553679 84.844009,16.023247 
	C90.193230,13.816483 95.778847,12.182754 101.629097,10.228146 
z"/>
<path fill="#197DE1" opacity="1.000000" stroke="none" 
	d="
M857.632446,9.225012 
	C856.698059,10.702010 855.694092,12.790808 854.043640,13.681448 
	C844.417053,18.876242 834.653748,23.819517 824.893860,28.763100 
	C823.615051,29.410847 822.090637,29.573744 820.282715,29.959385 
	C828.930847,20.650036 840.179504,15.111467 852.274109,11.017452 
	C853.942017,10.452882 855.601013,9.862028 857.632446,9.225012 
z"/>
<path fill="#197DE1" opacity="1.000000" stroke="none" 
	d="
M204.000000,34.000000 
	C197.169830,29.572412 190.284042,25.226118 183.568832,20.630541 
	C182.548691,19.932390 182.320343,18.077246 181.848495,16.461960 
	C191.254456,21.554676 200.537704,26.942680 209.580978,32.686317 
	C207.560669,33.361305 205.780334,33.680653 204.000000,34.000000 
z"/>
<path fill="#197DE1" opacity="1.000000" stroke="none" 
	d="
M63.372055,113.915504 
	C62.759537,112.673241 61.908176,111.068291 62.277016,109.825462 
	C64.965218,100.767296 68.691078,92.260696 76.778015,86.125793 
	C74.225288,91.052406 71.085014,95.938934 68.526459,101.113121 
	C66.540474,105.129379 65.280708,109.504730 63.372055,113.915504 
z"/>
<path fill="#197DE1" opacity="1.000000" stroke="none" 
	d="
M861.884766,96.587891 
	C859.814697,97.294701 857.390442,98.458992 855.400757,97.944000 
	C851.918457,97.042694 851.362732,94.737595 854.827515,92.138412 
	C857.314270,93.397758 859.520203,94.843513 861.884766,96.587891 
z"/>
<path fill="#197DE1" opacity="1.000000" stroke="none" 
	d="
M204.177002,34.285500 
	C205.780334,33.680653 207.560669,33.361305 209.727707,32.999718 
	C210.460648,33.749538 211.323669,34.956680 211.072754,35.269070 
	C208.711731,38.208447 206.160477,40.995026 203.353653,43.969688 
	C202.558777,40.806210 207.811874,38.286896 204.177002,34.285500 
z"/>
<path fill="#197DE1" opacity="1.000000" stroke="none" 
	d="
M2206.643066,9.215993 
	C2205.268066,14.724718 2200.587646,16.003260 2195.285889,16.959061 
	C2198.685547,14.393316 2202.485596,11.829318 2206.643066,9.215993 
z"/>
<path fill="#197DE1" opacity="1.000000" stroke="none" 
	d="
M2232.354980,53.968552 
	C2234.175781,50.151756 2236.309082,46.188778 2238.778809,42.133911 
	C2236.966064,45.968807 2234.817139,49.895592 2232.354980,53.968552 
z"/>
<path fill="#197DE1" opacity="1.000000" stroke="none" 
	d="
M850.910706,73.633072 
	C847.328003,69.946281 850.415222,68.092491 853.773071,66.128433 
	C853.072693,68.450073 852.030334,70.858147 850.910706,73.633072 
z"/>
<path fill="#197DE1" opacity="1.000000" stroke="none" 
	d="
M49.647903,38.025955 
	C49.886082,41.328636 48.286461,43.184155 44.285446,42.959106 
	C45.703064,41.360519 47.520695,39.763428 49.647903,38.025955 
z"/>
<path fill="#197DE1" opacity="1.000000" stroke="none" 
	d="
M209.343582,235.978363 
	C208.885391,233.065399 210.306473,231.361130 213.738678,231.003952 
	C212.626587,232.587585 211.135635,234.214935 209.343582,235.978363 
z"/>
<path fill="#197DE1" opacity="1.000000" stroke="none" 
	d="
M190.349014,58.973801 
	C191.171143,57.482018 192.299774,55.849613 193.771698,54.129593 
	C192.961853,55.639046 191.808685,57.236115 190.349014,58.973801 
z"/>
<path fill="#197DE1" opacity="1.000000" stroke="none" 
	d="
M184.349030,65.973793 
	C185.171127,64.482010 186.299744,62.849613 187.771698,61.129597 
	C186.961853,62.639046 185.808685,64.236115 184.349030,65.973793 
z"/>
<path fill="#197DE1" opacity="1.000000" stroke="none" 
	d="
M929.040161,77.363449 
	C930.375183,76.726479 931.864624,76.410324 933.734497,76.068130 
	C933.360535,79.243507 931.822632,80.097176 929.040161,77.363449 
z"/>
<path fill="#197DE1" opacity="1.000000" stroke="none" 
	d="
M197.349030,50.973808 
	C198.171143,49.482018 199.299774,47.849613 200.771729,46.129601 
	C199.961868,47.639057 198.808701,49.236126 197.349030,50.973808 
z"/>
<path fill="#197DE1" opacity="1.000000" stroke="none" 
	d="
M53.694279,34.164062 
	C53.910805,35.146748 53.841328,36.126820 53.771847,37.106895 
	C53.262180,36.879265 52.752514,36.651634 52.101547,36.153225 
	C52.442917,35.308777 52.925594,34.735111 53.694279,34.164062 
z"/>
<path fill="#197DE1" opacity="1.000000" stroke="none" 
	d="
M944.392822,59.911858 
	C943.773926,59.722542 943.430359,59.405254 943.086792,59.087982 
	C943.581238,58.754826 944.075684,58.421654 944.842529,58.065277 
	C944.966003,58.622677 944.817078,59.203281 944.392822,59.911858 
z"/>
<path fill="#197DE1" opacity="1.000000" stroke="none" 
	d="
M947.115417,55.223404 
	C947.096252,54.625717 947.313416,53.872009 947.822754,53.080200 
	C947.860474,53.717197 947.606140,54.392288 947.115417,55.223404 
z"/>
<path fill="#197DE1" opacity="1.000000" stroke="none" 
	d="
M939.115356,68.223488 
	C939.096130,67.625771 939.313354,66.872025 939.822754,66.080200 
	C939.860535,66.717232 939.606140,67.392342 939.115356,68.223488 
z"/>
<path fill="#197DE1" opacity="1.000000" stroke="none" 
	d="
M936.115356,73.223495 
	C936.096252,72.625793 936.313477,71.872047 936.822754,71.080200 
	C936.860474,71.717216 936.606140,72.392326 936.115356,73.223495 
z"/>
<path fill="#197DE1" opacity="1.000000" stroke="none" 
	d="
M952.115417,47.223404 
	C952.096191,46.625713 952.313416,45.872005 952.822754,45.080200 
	C952.860474,45.717197 952.606140,46.392292 952.115417,47.223404 
z"/>
<path fill="#197DE1" opacity="1.000000" stroke="none" 
	d="
M179.107880,70.403091 
	C179.480499,69.811409 180.004791,69.509834 180.822021,69.125153 
	C180.496475,69.592422 179.878006,70.142807 179.107880,70.403091 
z"/>
<path fill="#197DE1" opacity="1.000000" stroke="none" 
	d="
M957.318604,37.984783 
	C957.030823,37.681656 957.019226,37.248856 957.003479,36.491364 
	C957.197754,36.729481 957.396179,37.292297 957.318604,37.984783 
z"/>
<path fill="#197DE1" opacity="1.000000" stroke="none" 
	d="
M2239.286133,29.015572 
	C2239.038086,28.909473 2239.033936,28.704622 2239.036133,28.192430 
	C2239.204590,28.228996 2239.367188,28.572906 2239.286133,29.015572 
z"/>
<path fill="#000000" opacity="1.000000" stroke="none" 
	d="
M2047.463135,57.268158 
	C2072.748535,56.642284 2093.944092,65.103119 2110.322998,83.977783 
	C2120.709473,95.947166 2126.456543,110.071800 2128.127686,126.074265 
	C2130.134521,145.291107 2125.029541,162.364471 2113.972656,177.688187 
	C2101.890381,194.433212 2085.521973,204.635010 2064.939209,208.060623 
	C2042.527710,211.790604 2022.449829,206.102646 2005.061890,192.255936 
	C1990.421753,180.597366 1981.152222,165.093704 1977.975342,146.285568 
	C1974.405396,125.150124 1978.869263,105.744881 1991.311401,88.525284 
	C2002.566284,72.948921 2018.146606,63.341228 2036.896973,59.038338 
	C2040.224609,58.274704 2043.658203,57.973076 2047.463135,57.268158 
z"/>
<path fill="#000000" opacity="1.000000" stroke="none" 
	d="
M389.920227,206.002625 
	C366.137146,212.669189 344.306335,209.101471 324.674713,194.988388 
	C308.242371,183.175201 297.516998,167.312439 293.953918,146.958344 
	C289.164581,119.599236 297.455750,96.538506 317.096008,77.576744 
	C329.039948,66.045387 343.704803,59.982819 360.364899,57.809174 
	C374.782135,55.928158 388.187103,58.806427 400.856415,64.610741 
	C418.675507,72.774353 431.542023,86.525726 438.772980,104.747368 
	C447.228485,126.054749 446.528076,147.527588 435.880402,167.935913 
	C426.074677,186.730515 410.661194,199.461197 389.920227,206.002625 
z"/>
<path fill="#000000" opacity="1.000000" stroke="none" 
	d="
M2216.530029,15.068698 
	C2225.015381,17.063385 2230.026123,22.400463 2233.561523,29.886883 
	C2233.880371,30.037949 2233.958496,30.458754 2233.718262,30.767954 
	C2233.652100,31.329206 2233.825928,31.581257 2234.000000,31.833321 
	C2234.249023,38.618038 2232.004639,44.435085 2226.728027,49.638115 
	C2222.481934,51.725300 2218.740723,53.445988 2214.999756,55.166672 
	C2213.620850,55.104527 2212.242188,55.042385 2210.451660,54.931366 
	C2199.802246,51.102585 2193.734131,44.280762 2194.066650,32.098740 
	C2195.145752,28.906761 2196.130371,26.474483 2197.114746,24.042213 
	C2202.399658,18.839163 2207.895996,14.081030 2216.530029,15.068698 
M2223.882080,47.949688 
	C2223.993408,47.219013 2224.444824,46.294430 2224.157715,45.790783 
	C2222.804932,43.416145 2221.249756,41.156834 2219.381836,38.259357 
	C2220.891846,37.053638 2222.433838,36.203651 2223.457275,34.935116 
	C2226.929443,30.631538 2224.131104,22.377615 2218.237305,22.065403 
	C2213.637695,21.821741 2209.015137,22.016613 2204.308594,22.016613 
	C2204.308594,30.950178 2204.308594,39.349907 2204.308594,48.022774 
	C2206.361572,47.929565 2208.091064,47.851044 2210.086426,47.760460 
	C2210.086426,44.623337 2210.086426,41.990875 2210.086426,39.358418 
	C2210.461182,39.062729 2210.836182,38.767040 2211.210938,38.471352 
	C2212.476318,39.650597 2213.837646,40.743904 2214.986816,42.027340 
	C2217.279297,44.588055 2217.740234,49.565845 2223.882080,47.949688 
z"/>
<path fill="#197DE1" opacity="1.000000" stroke="none" 
	d="
M2196.772949,24.128510 
	C2196.130371,26.474483 2195.145752,28.906761 2193.997559,31.668474 
	C2190.326416,27.944231 2193.417480,26.092455 2196.772949,24.128510 
z"/>
<path fill="#197DE1" opacity="1.000000" stroke="none" 
	d="
M2215.067871,55.492409 
	C2218.740723,53.445988 2222.481934,51.725300 2226.590332,49.944801 
	C2226.218994,55.276485 2222.621094,57.273449 2217.697998,57.414272 
	C2216.860107,57.438244 2215.990723,56.377674 2215.067871,55.492409 
z"/>
<path fill="#197DE1" opacity="1.000000" stroke="none" 
	d="
M2233.991211,31.596577 
	C2233.825928,31.581257 2233.652100,31.329206 2233.717285,30.981939 
	C2233.956543,30.886724 2233.982422,31.359844 2233.991211,31.596577 
z"/>
<path fill="#197DE1" opacity="1.000000" stroke="none" 
	d="
M2223.479004,47.970558 
	C2217.740234,49.565845 2217.279297,44.588055 2214.986816,42.027340 
	C2213.837646,40.743904 2212.476318,39.650597 2211.210938,38.471352 
	C2210.836182,38.767040 2210.461182,39.062729 2210.086426,39.358418 
	C2210.086426,41.990875 2210.086426,44.623337 2210.086426,47.760460 
	C2208.091064,47.851044 2206.361572,47.929565 2204.308594,48.022774 
	C2204.308594,39.349907 2204.308594,30.950178 2204.308594,22.016613 
	C2209.015137,22.016613 2213.637695,21.821741 2218.237305,22.065403 
	C2224.131104,22.377615 2226.929443,30.631538 2223.457275,34.935116 
	C2222.433838,36.203651 2220.891846,37.053638 2219.381836,38.259357 
	C2221.249756,41.156834 2222.804932,43.416145 2224.157715,45.790783 
	C2224.444824,46.294430 2223.993408,47.219013 2223.479004,47.970558 
M2217.345459,33.102432 
	C2217.787842,31.518053 2218.230225,29.933676 2218.672363,28.349241 
	C2215.988281,27.740604 2213.304199,27.131969 2210.248047,26.438972 
	C2210.248047,29.512732 2210.248047,31.556309 2210.248047,34.009220 
	C2212.584717,33.899796 2214.663330,33.802448 2217.345459,33.102432 
z"/>
<path fill="#000000" opacity="1.000000" stroke="none" 
	d="
M2217.043701,33.403767 
	C2214.663330,33.802448 2212.584717,33.899796 2210.248047,34.009220 
	C2210.248047,31.556309 2210.248047,29.512732 2210.248047,26.438972 
	C2213.304199,27.131969 2215.988281,27.740604 2218.672363,28.349270 
	C2218.230225,29.933676 2217.787842,31.518053 2217.043701,33.403767 
z"/>
</svg>