<svg version="1.1" id="Layer_1" xmlns="http://www.w3.org/2000/svg" xmlns:xlink="http://www.w3.org/1999/xlink" x="0px" y="0px"
	 width="100%" viewBox="0 0 2234 255" enable-background="new 0 0 2234 255" xml:space="preserve">
<path fill="#000000" opacity="1.000000" stroke="none" 
	d="
M2031.000000,256.000000 
	C1653.633911,256.000000 1276.267822,256.000000 898.117493,255.696564 
	C898.153076,254.931854 898.920349,254.264786 899.800659,254.039581 
	C918.115295,249.354401 932.828857,239.475143 943.645386,223.883789 
	C953.088318,210.272217 957.806763,195.449158 957.135010,178.651520 
	C956.438965,161.246979 949.935425,146.535965 938.400269,134.002655 
	C920.715637,114.787712 897.726074,104.907387 873.155334,97.979607 
	C863.902832,95.370857 854.515747,92.736694 848.706665,84.127937 
	C843.086609,75.799438 845.301758,63.685184 853.110229,58.357468 
	C866.380554,49.303246 880.600342,50.239563 894.305969,56.040585 
	C904.714355,60.446056 914.305115,66.854294 924.041138,72.733231 
	C926.846069,74.426979 927.845093,74.119797 929.312866,71.410477 
	C932.026367,66.401611 935.085632,61.577415 938.066956,56.716785 
	C943.148193,48.432369 948.280457,40.179237 953.390808,31.913702 
	C948.958191,29.033499 945.137634,26.539505 941.305786,24.063108 
	C923.992126,12.873914 905.794800,4.066682 884.716797,2.899078 
	C884.111328,2.865539 883.570801,1.659378 883.000000,0.999989 
	C1264.032715,1.000000 1645.065430,1.000000 2026.832153,1.349807 
	C2026.894409,2.121302 2026.265747,2.810257 2025.544922,2.926094 
	C1998.995728,7.193291 1976.371216,19.373537 1957.608887,38.228943 
	C1949.832031,46.044411 1943.811157,55.636063 1937.248169,64.607567 
	C1935.829590,66.546700 1935.086060,67.422844 1932.617554,66.307945 
	C1917.773926,59.603897 1902.856323,53.064213 1887.960693,46.475437 
	C1877.408325,41.807762 1866.851807,37.149582 1856.297607,32.486134 
	C1854.324097,15.586224 1846.554321,7.587409 1830.286621,5.120279 
	C1821.259277,3.751214 1809.844238,11.426509 1805.017090,21.951662 
	C1800.826050,31.090054 1802.836426,44.930866 1813.405518,52.758980 
	C1824.622070,61.066689 1837.203125,59.565983 1848.222168,51.106308 
	C1853.094727,53.380848 1857.921997,55.758678 1862.845459,57.916943 
	C1883.569824,67.001648 1904.338135,75.986458 1925.012695,85.182259 
	C1925.894043,85.574234 1926.674805,87.879082 1926.374512,88.987083 
	C1922.030396,105.015350 1919.353638,121.048027 1920.774292,137.894791 
	C1922.113281,153.775192 1925.982544,168.736115 1932.588379,183.037277 
	C1941.889038,203.172470 1956.140259,219.437042 1973.993530,232.289566 
	C1990.337402,244.055618 2008.606323,251.668701 2028.821899,254.081665 
	C2029.613037,254.176086 2030.276855,255.336365 2031.000000,256.000000 
M1264.500000,251.000000 
	C1301.917114,251.000000 1339.334106,251.000000 1376.758301,251.000000 
	C1376.758301,234.016708 1376.758301,217.749954 1376.758301,200.942627 
	C1338.801880,200.942627 1301.082275,200.942627 1263.360840,200.942627 
	C1263.360840,183.345688 1263.360840,166.294037 1263.360840,148.879852 
	C1288.653931,148.879852 1313.588745,148.879852 1338.695557,148.879852 
	C1338.695557,132.126953 1338.695557,115.742706 1338.695557,98.815659 
	C1313.340820,98.815659 1288.285400,98.815659 1263.248291,98.815659 
	C1263.248291,84.003220 1263.248291,69.736092 1263.248291,54.929207 
	C1301.545044,54.929207 1339.597900,54.929207 1377.632568,54.929207 
	C1377.632568,37.998707 1377.632568,21.613703 1377.632568,5.247325 
	C1322.667603,5.247325 1268.070435,5.247325 1213.301025,5.247325 
	C1213.301025,87.207863 1213.301025,168.920822 1213.301025,251.000000 
	C1230.233032,251.000000 1246.866455,251.000000 1264.500000,251.000000 
M1018.500000,5.000000 
	C1009.078918,5.000000 999.657898,5.000000 990.412354,5.000000 
	C990.412354,22.097269 990.412354,38.477463 990.412354,55.209335 
	C1013.084717,55.209335 1035.346191,55.209335 1058.115234,55.209335 
	C1058.115234,120.600060 1058.115234,185.631653 1058.115234,250.631653 
	C1075.012207,250.631653 1091.393066,250.631653 1108.281494,250.631653 
	C1108.281494,185.232910 1108.281494,120.201294 1108.281494,54.815113 
	C1130.722290,54.815113 1152.651367,54.815113 1174.674194,54.815113 
	C1174.674194,38.074402 1174.674194,21.694296 1174.674194,5.000000 
	C1122.732666,5.000000 1071.116333,5.000000 1018.500000,5.000000 
M1662.000000,62.500000 
	C1662.000000,43.413147 1662.000000,24.326294 1662.000000,5.244543 
	C1645.011475,5.244543 1628.744507,5.244543 1612.300293,5.244543 
	C1612.300293,87.203552 1612.300293,168.917786 1612.300293,250.641190 
	C1659.317871,250.641190 1706.034302,250.641190 1752.756836,250.641190 
	C1752.756836,234.014175 1752.756836,217.747147 1752.756836,200.938110 
	C1722.464600,200.938110 1692.410034,200.938110 1662.000000,200.938110 
	C1662.000000,154.763153 1662.000000,109.131577 1662.000000,62.500000 
M1570.999512,247.301147 
	C1570.999512,232.018524 1570.999512,216.735901 1570.999512,200.912903 
	C1540.439697,200.912903 1510.384033,200.912903 1479.790527,200.912903 
	C1479.790527,135.315918 1479.790527,70.263039 1479.790527,5.262377 
	C1462.976562,5.262377 1446.708862,5.262377 1430.322510,5.262377 
	C1430.322510,87.242371 1430.322510,168.959625 1430.322510,250.999985 
	C1432.450195,250.999985 1434.257935,250.999969 1436.065552,250.999969 
	C1470.397949,250.999969 1504.730347,251.000015 1539.062744,250.999954 
	C1548.395874,250.999939 1557.728882,251.009750 1567.062012,250.991043 
	C1568.965332,250.987228 1571.371338,251.598450 1570.999512,247.301147 
M1806.000000,154.500000 
	C1806.000000,186.575089 1806.000000,218.650192 1806.000000,250.601837 
	C1823.073364,250.601837 1839.454712,250.601837 1855.743896,250.601837 
	C1855.743896,198.620636 1855.743896,147.037979 1855.743896,95.309708 
	C1839.106689,95.309708 1822.727051,95.309708 1806.000000,95.309708 
	C1806.000000,114.911781 1806.000000,134.205887 1806.000000,154.500000 
z"/>
<path fill="#000000" opacity="1.000000" stroke="none" 
	d="
M384.000000,1.000001 
	C543.357422,1.000000 702.714844,1.000000 862.786499,1.367770 
	C860.733521,2.486416 857.983032,3.306175 855.196594,3.976962 
	C837.478638,8.242176 821.513306,15.542935 810.077271,30.441334 
	C791.898621,54.123817 791.256287,80.019821 803.295166,105.890427 
	C813.294922,127.379143 832.823608,138.527252 854.900574,144.888840 
	C869.544067,149.108398 883.919739,153.630219 896.179504,163.060928 
	C902.608826,168.006638 908.364258,174.295380 907.419312,182.605316 
	C906.190613,193.409897 900.265076,202.230713 888.932129,204.926468 
	C876.696716,207.836945 864.487915,205.966965 852.571899,202.223679 
	C839.491821,198.114700 828.199402,191.141647 818.715332,181.231918 
	C817.243713,179.694229 815.881592,177.719986 813.407593,180.077499 
	C802.032898,190.916595 790.606018,201.700928 778.795898,212.885513 
	C781.390503,215.279770 783.912170,217.536804 786.357239,219.874039 
	C805.541443,238.212631 828.055298,249.898666 854.365906,254.091812 
	C854.995972,254.192230 855.459045,255.340469 856.000000,256.000000 
	C697.642578,256.000000 539.285156,256.000000 380.230652,255.620132 
	C380.209778,254.837097 380.839142,254.229950 381.569427,254.062241 
	C389.006744,252.354431 396.619324,251.228622 403.880920,248.969467 
	C429.173004,241.100815 449.648926,225.812347 465.282623,204.894089 
	C487.397430,175.303940 495.491150,141.601624 488.791687,105.151535 
	C483.329559,75.433563 468.852325,50.526062 445.498627,30.913120 
	C428.104706,16.305328 408.447296,6.811382 386.060303,2.923479 
	C385.285553,2.788931 384.682892,1.663559 384.000000,1.000001 
M620.499573,72.999611 
	C616.930969,69.098305 613.495544,65.064537 609.771057,61.318169 
	C591.796021,43.237305 573.750183,25.226742 555.696899,7.223953 
	C554.803772,6.333312 553.632874,5.174830 552.543579,5.121825 
	C547.794617,4.890741 543.028015,5.022512 538.395325,5.022512 
	C538.395325,87.399826 538.395325,169.111755 538.395325,250.721146 
	C555.059082,250.721146 571.326172,250.721146 588.297241,250.721146 
	C588.297241,204.006424 588.297241,157.566376 588.297241,111.126328 
	C591.761780,113.478455 593.968018,116.304924 596.427307,118.890800 
	C604.892578,127.791893 613.443726,136.611374 621.966797,145.457443 
	C639.706726,163.869507 657.409119,182.318069 675.204224,200.676682 
	C689.668396,215.598907 704.621887,230.069382 718.593079,245.435974 
	C724.462646,251.891754 730.703735,251.296249 737.597290,250.635178 
	C737.597290,168.585144 737.597290,86.873299 737.597290,5.286221 
	C720.926025,5.286221 704.658752,5.286221 687.914368,5.286221 
	C687.914368,49.945049 687.914368,94.320511 687.914368,138.695984 
	C687.548950,138.903290 687.183533,139.110611 686.818115,139.317932 
	C664.878723,117.378571 642.939331,95.439209 620.499573,72.999611 
z"/>
<path fill="#197DE1" opacity="1.000000" stroke="none" 
	d="
M2031.468628,256.000000 
	C2030.276855,255.336365 2029.613037,254.176086 2028.821899,254.081665 
	C2008.606323,251.668701 1990.337402,244.055618 1973.993530,232.289566 
	C1956.140259,219.437042 1941.889038,203.172470 1932.588379,183.037277 
	C1925.982544,168.736115 1922.113281,153.775192 1920.774292,137.894791 
	C1919.353638,121.048027 1922.030396,105.015350 1926.374512,88.987083 
	C1926.674805,87.879082 1925.894043,85.574234 1925.012695,85.182259 
	C1904.338135,75.986458 1883.569824,67.001648 1862.845459,57.916943 
	C1857.921997,55.758678 1853.094727,53.380848 1848.222168,51.106308 
	C1837.203125,59.565983 1824.622070,61.066689 1813.405518,52.758980 
	C1802.836426,44.930866 1800.826050,31.090054 1805.017090,21.951662 
	C1809.844238,11.426509 1821.259277,3.751214 1830.286621,5.120279 
	C1846.554321,7.587409 1854.324097,15.586224 1856.297607,32.486134 
	C1866.851807,37.149582 1877.408325,41.807762 1887.960693,46.475437 
	C1902.856323,53.064213 1917.773926,59.603897 1932.617554,66.307945 
	C1935.086060,67.422844 1935.829590,66.546700 1937.248169,64.607567 
	C1943.811157,55.636063 1949.832031,46.044411 1957.608887,38.228943 
	C1976.371216,19.373537 1998.995728,7.193291 2025.544922,2.926094 
	C2026.265747,2.810257 2026.894409,2.121302 2027.283081,1.349807 
	C2040.354126,1.000000 2053.708252,1.000000 2067.277832,1.365743 
	C2069.331543,2.176107 2071.166748,2.633020 2073.008301,3.063501 
	C2103.364746,10.160207 2129.133789,25.009712 2148.170898,49.880379 
	C2172.416260,81.555267 2180.312744,117.399475 2171.899902,156.431335 
	C2165.724854,185.080154 2150.716064,208.736267 2128.108887,227.181107 
	C2110.246094,241.755142 2089.778564,251.147385 2066.640625,254.095078 
	C2066.022949,254.173752 2065.543945,255.340637 2065.000000,256.000000 
	C2053.979004,256.000000 2042.958130,256.000000 2031.468628,256.000000 
M1984.473022,86.049065 
	C1974.104370,101.755898 1969.857422,119.223022 1972.246704,137.640518 
	C1975.011841,158.954636 1985.354248,176.546158 2002.909302,189.348465 
	C2021.236816,202.714096 2041.795166,207.193634 2063.910889,202.447739 
	C2080.635254,198.858749 2094.521729,190.144699 2105.696533,176.920670 
	C2117.981445,162.382828 2123.913818,145.483276 2123.754150,126.870850 
	C2123.642090,113.807930 2119.808105,101.290024 2113.023926,89.730309 
	C2096.789795,62.068604 2063.036133,46.539021 2031.401611,54.102627 
	C2012.110107,58.715088 1996.309204,68.921059 1984.473022,86.049065 
z"/>
<path fill="#000000" opacity="1.000000" stroke="none" 
	d="
M346.000000,256.000000 
	C280.645782,256.000000 215.291550,256.000000 149.215027,255.634430 
	C148.847839,254.927765 149.146591,254.399170 149.566284,254.273026 
	C159.970230,251.146225 170.824158,249.051971 180.681717,244.699005 
	C191.080688,240.106979 200.531113,233.366898 210.888641,227.275482 
	C199.785721,214.781448 189.595703,203.561035 179.758789,192.039169 
	C177.771591,189.711578 177.034088,189.973297 174.826645,191.491302 
	C158.504578,202.715683 140.570068,207.163666 120.836960,204.034119 
	C102.089287,201.060822 86.217804,193.097244 73.830093,178.397369 
	C58.196434,159.845688 53.372631,138.241898 57.289871,115.008881 
	C60.711929,94.712769 71.281258,78.185669 88.851234,66.654480 
	C106.416924,55.126106 125.708603,51.154613 146.143021,55.166847 
	C156.190262,57.139595 165.784958,61.417282 176.154388,64.840027 
	C185.853439,53.643879 196.480255,41.376774 207.295258,28.892416 
	C188.416183,14.807686 168.041473,5.309559 144.677994,2.903485 
	C144.059875,2.839829 143.556747,1.659548 143.000000,0.999999 
	C209.354233,1.000000 275.708466,1.000000 342.813690,1.350312 
	C342.560883,2.133200 341.585999,2.657917 340.548737,2.984083 
	C330.342010,6.193535 319.733215,8.474064 309.988434,12.733704 
	C286.349152,23.066917 268.216827,40.060829 254.631058,61.909504 
	C243.288300,80.150909 237.151947,100.220673 236.254257,121.512192 
	C235.795303,132.397385 237.146698,143.545654 239.118683,154.311478 
	C244.956787,186.184174 262.164673,211.378662 287.637634,230.690628 
	C304.308258,243.329193 323.241028,251.631790 344.361938,254.096222 
	C344.973663,254.167603 345.456879,255.340637 346.000000,256.000000 
z"/>
<path fill="#197DE1" opacity="1.000000" stroke="none" 
	d="
M346.468658,256.000000 
	C345.456879,255.340637 344.973663,254.167603 344.361938,254.096222 
	C323.241028,251.631790 304.308258,243.329193 287.637634,230.690628 
	C262.164673,211.378662 244.956787,186.184174 239.118683,154.311478 
	C237.146698,143.545654 235.795303,132.397385 236.254257,121.512192 
	C237.151947,100.220673 243.288300,80.150909 254.631058,61.909504 
	C268.216827,40.060829 286.349152,23.066917 309.988434,12.733704 
	C319.733215,8.474064 330.342010,6.193535 340.548737,2.984083 
	C341.585999,2.657917 342.560883,2.133200 343.282349,1.350312 
	C356.354218,1.000000 369.708466,1.000000 383.531342,1.000001 
	C384.682892,1.663559 385.285553,2.788931 386.060303,2.923479 
	C408.447296,6.811382 428.104706,16.305328 445.498627,30.913120 
	C468.852325,50.526062 483.329559,75.433563 488.791687,105.151535 
	C495.491150,141.601624 487.397430,175.303940 465.282623,204.894089 
	C449.648926,225.812347 429.173004,241.100815 403.880920,248.969467 
	C396.619324,251.228622 389.006744,252.354431 381.569427,254.062241 
	C380.839142,254.229950 380.209778,254.837097 379.766785,255.620132 
	C368.979095,256.000000 357.958221,256.000000 346.468658,256.000000 
M291.997101,153.452591 
	C296.409271,168.070847 305.780609,179.489243 317.412720,188.485565 
	C334.585388,201.766968 354.449341,206.665161 376.162933,203.024445 
	C396.824005,199.560226 412.894989,188.700500 425.192902,172.191727 
	C438.647675,154.130005 442.115082,133.361282 437.620636,111.891205 
	C433.921722,94.221222 424.481506,79.220314 409.645935,68.136047 
	C392.150757,55.064686 372.519989,49.492538 351.037201,53.231312 
	C331.535217,56.625351 315.076691,66.144012 303.196442,82.378777 
	C287.512970,103.810776 283.161682,127.214981 291.997101,153.452591 
z"/>
<path fill="#197DE1" opacity="1.000000" stroke="none" 
	d="
M856.468628,256.000000 
	C855.459045,255.340469 854.995972,254.192230 854.365906,254.091812 
	C828.055298,249.898666 805.541443,238.212631 786.357239,219.874039 
	C783.912170,217.536804 781.390503,215.279770 778.795898,212.885513 
	C790.606018,201.700928 802.032898,190.916595 813.407593,180.077499 
	C815.881592,177.719986 817.243713,179.694229 818.715332,181.231918 
	C828.199402,191.141647 839.491821,198.114700 852.571899,202.223679 
	C864.487915,205.966965 876.696716,207.836945 888.932129,204.926468 
	C900.265076,202.230713 906.190613,193.409897 907.419312,182.605316 
	C908.364258,174.295380 902.608826,168.006638 896.179504,163.060928 
	C883.919739,153.630219 869.544067,149.108398 854.900574,144.888840 
	C832.823608,138.527252 813.294922,127.379143 803.295166,105.890427 
	C791.256287,80.019821 791.898621,54.123817 810.077271,30.441334 
	C821.513306,15.542935 837.478638,8.242176 855.196594,3.976962 
	C857.983032,3.306175 860.733521,2.486416 863.250366,1.367770 
	C869.354431,1.000000 875.708801,1.000000 882.531616,0.999989 
	C883.570801,1.659378 884.111328,2.865539 884.716797,2.899078 
	C905.794800,4.066682 923.992126,12.873914 941.305786,24.063108 
	C945.137634,26.539505 948.958191,29.033499 953.390808,31.913702 
	C948.280457,40.179237 943.148193,48.432369 938.066956,56.716785 
	C935.085632,61.577415 932.026367,66.401611 929.312866,71.410477 
	C927.845093,74.119797 926.846069,74.426979 924.041138,72.733231 
	C914.305115,66.854294 904.714355,60.446056 894.305969,56.040585 
	C880.600342,50.239563 866.380554,49.303246 853.110229,58.357468 
	C845.301758,63.685184 843.086609,75.799438 848.706665,84.127937 
	C854.515747,92.736694 863.902832,95.370857 873.155334,97.979607 
	C897.726074,104.907387 920.715637,114.787712 938.400269,134.002655 
	C949.935425,146.535965 956.438965,161.246979 957.135010,178.651520 
	C957.806763,195.449158 953.088318,210.272217 943.645386,223.883789 
	C932.828857,239.475143 918.115295,249.354401 899.800659,254.039581 
	C898.920349,254.264786 898.153076,254.931854 897.666626,255.696564 
	C884.312439,256.000000 870.624878,256.000000 856.468628,256.000000 
z"/>
<path fill="#197DE1" opacity="1.000000" stroke="none" 
	d="
M142.531342,0.999999 
	C143.556747,1.659548 144.059875,2.839829 144.677994,2.903485 
	C168.041473,5.309559 188.416183,14.807686 207.295258,28.892416 
	C196.480255,41.376774 185.853439,53.643879 176.154388,64.840027 
	C165.784958,61.417282 156.190262,57.139595 146.143021,55.166847 
	C125.708603,51.154613 106.416924,55.126106 88.851234,66.654480 
	C71.281258,78.185669 60.711929,94.712769 57.289871,115.008881 
	C53.372631,138.241898 58.196434,159.845688 73.830093,178.397369 
	C86.217804,193.097244 102.089287,201.060822 120.836960,204.034119 
	C140.570068,207.163666 158.504578,202.715683 174.826645,191.491302 
	C177.034088,189.973297 177.771591,189.711578 179.758789,192.039169 
	C189.595703,203.561035 199.785721,214.781448 210.888641,227.275482 
	C200.531113,233.366898 191.080688,240.106979 180.681717,244.699005 
	C170.824158,249.051971 159.970230,251.146225 149.566284,254.273026 
	C149.146591,254.399170 148.847839,254.927765 148.746368,255.634430 
	C134.979111,256.000000 120.958214,256.000000 106.736130,255.649078 
	C106.183609,254.950409 105.876556,254.363342 105.474632,254.288986 
	C75.785995,248.795166 51.037716,234.748871 31.294548,211.829987 
	C16.692133,194.878769 7.466840,175.387955 2.939225,153.557205 
	C2.743073,152.611420 1.666468,151.848236 1.000001,151.000000 
	C1.000000,136.645767 1.000000,122.291542 1.406261,107.448395 
	C2.193994,106.520363 2.798205,106.136551 2.923050,105.633713 
	C4.449177,99.487007 5.299041,93.097839 7.487766,87.203583 
	C15.403115,65.887505 27.338894,47.313652 44.938145,32.428539 
	C64.142113,16.186188 85.811096,5.970039 110.826561,2.918964 
	C111.617294,2.822520 112.278442,1.663604 113.000000,0.999999 
	C122.687561,1.000000 132.375122,1.000000 142.531342,0.999999 
z"/>
<path fill="#000000" opacity="1.000000" stroke="none" 
	d="
M2065.468750,256.000000 
	C2065.543945,255.340637 2066.022949,254.173752 2066.640625,254.095078 
	C2089.778564,251.147385 2110.246094,241.755142 2128.108887,227.181107 
	C2150.716064,208.736267 2165.724854,185.080154 2171.899902,156.431335 
	C2180.312744,117.399475 2172.416260,81.555267 2148.170898,49.880379 
	C2129.133789,25.009712 2103.364746,10.160207 2073.008301,3.063501 
	C2071.166748,2.633020 2069.331543,2.176107 2067.746582,1.365743 
	C2123.666748,1.000000 2179.333496,1.000000 2235.000000,1.000000 
	C2235.000000,7.089632 2235.000000,13.075440 2234.755127,19.868753 
	C2228.163330,9.031701 2219.044922,2.707863 2205.103516,3.893278 
	C2191.286621,5.068116 2180.056396,19.587864 2182.369141,33.535881 
	C2184.745605,47.870274 2196.200928,57.631866 2210.799072,56.130913 
	C2220.207275,55.163582 2227.197998,51.287533 2232.004395,43.211292 
	C2232.735840,41.982052 2233.988525,41.062691 2235.000000,40.000000 
	C2235.000000,111.918289 2235.000000,183.836578 2235.000000,256.000000 
	C2178.645996,256.000000 2122.291748,256.000000 2065.468750,256.000000 
z"/>
<path fill="#000000" opacity="1.000000" stroke="none" 
	d="
M112.531342,0.999999 
	C112.278442,1.663604 111.617294,2.822520 110.826561,2.918964 
	C85.811096,5.970039 64.142113,16.186188 44.938145,32.428539 
	C27.338894,47.313652 15.403115,65.887505 7.487766,87.203583 
	C5.299041,93.097839 4.449177,99.487007 2.923050,105.633713 
	C2.798205,106.136551 2.193994,106.520363 1.406261,106.979736 
	C1.000000,71.737701 1.000000,36.475410 1.000000,1.000000 
	C38.020622,1.000000 75.041649,1.000000 112.531342,0.999999 
z"/>
<path fill="#000000" opacity="1.000000" stroke="none" 
	d="
M1.000001,151.468658 
	C1.666468,151.848236 2.743073,152.611420 2.939225,153.557205 
	C7.466840,175.387955 16.692133,194.878769 31.294548,211.829987 
	C51.037716,234.748871 75.785995,248.795166 105.474632,254.288986 
	C105.876556,254.363342 106.183609,254.950409 106.267471,255.649078 
	C71.073059,256.000000 36.146114,256.000000 1.000000,256.000000 
	C1.000000,221.312744 1.000000,186.625031 1.000001,151.468658 
z"/>
<path fill="#197DE1" opacity="1.000000" stroke="none" 
	d="
M2235.000000,39.531597 
	C2233.988525,41.062691 2232.735840,41.982052 2232.004395,43.211292 
	C2227.197998,51.287533 2220.207275,55.163582 2210.799072,56.130913 
	C2196.200928,57.631866 2184.745605,47.870274 2182.369141,33.535881 
	C2180.056396,19.587864 2191.286621,5.068116 2205.103516,3.893278 
	C2219.044922,2.707863 2228.163330,9.031701 2234.755127,20.338129 
	C2235.000000,26.354399 2235.000000,32.708797 2235.000000,39.531597 
M2228.917480,31.242634 
	C2228.271729,22.037096 2224.337891,14.760957 2215.530518,11.341479 
	C2206.841797,7.968042 2199.595215,11.085037 2193.592773,17.863815 
	C2188.060791,24.111509 2187.469727,32.749405 2192.261230,40.607342 
	C2196.332520,47.284180 2205.219971,50.831505 2212.355713,49.345367 
	C2222.024658,47.331631 2226.592773,40.979946 2228.917480,31.242634 
z"/>
<path fill="#197DE1" opacity="1.000000" stroke="none" 
	d="
M1264.000000,251.000000 
	C1246.866455,251.000000 1230.233032,251.000000 1213.301025,251.000000 
	C1213.301025,168.920822 1213.301025,87.207863 1213.301025,5.247325 
	C1268.070435,5.247325 1322.667603,5.247325 1377.632568,5.247325 
	C1377.632568,21.613703 1377.632568,37.998707 1377.632568,54.929207 
	C1339.597900,54.929207 1301.545044,54.929207 1263.248291,54.929207 
	C1263.248291,69.736092 1263.248291,84.003220 1263.248291,98.815659 
	C1288.285400,98.815659 1313.340820,98.815659 1338.695557,98.815659 
	C1338.695557,115.742706 1338.695557,132.126953 1338.695557,148.879852 
	C1313.588745,148.879852 1288.653931,148.879852 1263.360840,148.879852 
	C1263.360840,166.294037 1263.360840,183.345688 1263.360840,200.942627 
	C1301.082275,200.942627 1338.801880,200.942627 1376.758301,200.942627 
	C1376.758301,217.749954 1376.758301,234.016708 1376.758301,251.000000 
	C1339.334106,251.000000 1301.917114,251.000000 1264.000000,251.000000 
z"/>
<path fill="#197DE1" opacity="1.000000" stroke="none" 
	d="
M1019.000000,5.000000 
	C1071.116333,5.000000 1122.732666,5.000000 1174.674194,5.000000 
	C1174.674194,21.694296 1174.674194,38.074402 1174.674194,54.815113 
	C1152.651367,54.815113 1130.722290,54.815113 1108.281494,54.815113 
	C1108.281494,120.201294 1108.281494,185.232910 1108.281494,250.631653 
	C1091.393066,250.631653 1075.012207,250.631653 1058.115234,250.631653 
	C1058.115234,185.631653 1058.115234,120.600060 1058.115234,55.209335 
	C1035.346191,55.209335 1013.084717,55.209335 990.412354,55.209335 
	C990.412354,38.477463 990.412354,22.097269 990.412354,5.000000 
	C999.657898,5.000000 1009.078918,5.000000 1019.000000,5.000000 
z"/>
<path fill="#197DE1" opacity="1.000000" stroke="none" 
	d="
M1662.000000,63.000000 
	C1662.000000,109.131577 1662.000000,154.763153 1662.000000,200.938110 
	C1692.410034,200.938110 1722.464600,200.938110 1752.756836,200.938110 
	C1752.756836,217.747147 1752.756836,234.014175 1752.756836,250.641190 
	C1706.034302,250.641190 1659.317871,250.641190 1612.300293,250.641190 
	C1612.300293,168.917786 1612.300293,87.203552 1612.300293,5.244543 
	C1628.744507,5.244543 1645.011475,5.244543 1662.000000,5.244543 
	C1662.000000,24.326294 1662.000000,43.413147 1662.000000,63.000000 
z"/>
<path fill="#197DE1" opacity="1.000000" stroke="none" 
	d="
M1570.997803,247.781616 
	C1571.371338,251.598450 1568.965332,250.987228 1567.062012,250.991043 
	C1557.728882,251.009750 1548.395874,250.999939 1539.062744,250.999954 
	C1504.730347,251.000015 1470.397949,250.999969 1436.065552,250.999969 
	C1434.257935,250.999969 1432.450195,250.999985 1430.322510,250.999985 
	C1430.322510,168.959625 1430.322510,87.242371 1430.322510,5.262377 
	C1446.708862,5.262377 1462.976562,5.262377 1479.790527,5.262377 
	C1479.790527,70.263039 1479.790527,135.315918 1479.790527,200.912903 
	C1510.384033,200.912903 1540.439697,200.912903 1570.999512,200.912903 
	C1570.999512,216.735901 1570.999512,232.018524 1570.997803,247.781616 
z"/>
<path fill="#197DE1" opacity="1.000000" stroke="none" 
	d="
M1806.000000,154.000000 
	C1806.000000,134.205887 1806.000000,114.911781 1806.000000,95.309708 
	C1822.727051,95.309708 1839.106689,95.309708 1855.743896,95.309708 
	C1855.743896,147.037979 1855.743896,198.620636 1855.743896,250.601837 
	C1839.454712,250.601837 1823.073364,250.601837 1806.000000,250.601837 
	C1806.000000,218.650192 1806.000000,186.575089 1806.000000,154.000000 
z"/>
<path fill="#197DE1" opacity="1.000000" stroke="none" 
	d="
M620.749756,73.249725 
	C642.939331,95.439209 664.878723,117.378571 686.818115,139.317932 
	C687.183533,139.110611 687.548950,138.903290 687.914368,138.695984 
	C687.914368,94.320511 687.914368,49.945049 687.914368,5.286221 
	C704.658752,5.286221 720.926025,5.286221 737.597290,5.286221 
	C737.597290,86.873299 737.597290,168.585144 737.597290,250.635178 
	C730.703735,251.296249 724.462646,251.891754 718.593079,245.435974 
	C704.621887,230.069382 689.668396,215.598907 675.204224,200.676682 
	C657.409119,182.318069 639.706726,163.869507 621.966797,145.457443 
	C613.443726,136.611374 604.892578,127.791893 596.427307,118.890800 
	C593.968018,116.304924 591.761780,113.478455 588.297241,111.126328 
	C588.297241,157.566376 588.297241,204.006424 588.297241,250.721146 
	C571.326172,250.721146 555.059082,250.721146 538.395325,250.721146 
	C538.395325,169.111755 538.395325,87.399826 538.395325,5.022512 
	C543.028015,5.022512 547.794617,4.890741 552.543579,5.121825 
	C553.632874,5.174830 554.803772,6.333312 555.696899,7.223953 
	C573.750183,25.226742 591.796021,43.237305 609.771057,61.318169 
	C613.495544,65.064537 616.930969,69.098305 620.749756,73.249725 
z"/>
<path fill="#000000" opacity="1.000000" stroke="none" 
	d="
M1984.729126,85.785294 
	C1996.309204,68.921059 2012.110107,58.715088 2031.401611,54.102627 
	C2063.036133,46.539021 2096.789795,62.068604 2113.023926,89.730309 
	C2119.808105,101.290024 2123.642090,113.807930 2123.754150,126.870850 
	C2123.913818,145.483276 2117.981445,162.382828 2105.696533,176.920670 
	C2094.521729,190.144699 2080.635254,198.858749 2063.910889,202.447739 
	C2041.795166,207.193634 2021.236816,202.714096 2002.909302,189.348465 
	C1985.354248,176.546158 1975.011841,158.954636 1972.246704,137.640518 
	C1969.857422,119.223022 1974.104370,101.755898 1984.729126,85.785294 
z"/>
<path fill="#000000" opacity="1.000000" stroke="none" 
	d="
M291.952301,153.049805 
	C283.161682,127.214981 287.512970,103.810776 303.196442,82.378777 
	C315.076691,66.144012 331.535217,56.625351 351.037201,53.231312 
	C372.519989,49.492538 392.150757,55.064686 409.645935,68.136047 
	C424.481506,79.220314 433.921722,94.221222 437.620636,111.891205 
	C442.115082,133.361282 438.647675,154.130005 425.192902,172.191727 
	C412.894989,188.700500 396.824005,199.560226 376.162933,203.024445 
	C354.449341,206.665161 334.585388,201.766968 317.412720,188.485565 
	C305.780609,179.489243 296.409271,168.070847 291.952301,153.049805 
z"/>
<path fill="#000000" opacity="1.000000" stroke="none" 
	d="
M2228.721191,31.608440 
	C2226.592773,40.979946 2222.024658,47.331631 2212.355713,49.345367 
	C2205.219971,50.831505 2196.332520,47.284180 2192.261230,40.607342 
	C2187.469727,32.749405 2188.060791,24.111509 2193.592773,17.863815 
	C2199.595215,11.085037 2206.841797,7.968042 2215.530518,11.341479 
	C2224.337891,14.760957 2228.271729,22.037096 2228.721191,31.608440 
M2211.130127,17.000166 
	C2207.194580,17.000166 2203.259033,17.000166 2199.000000,17.000166 
	C2199.000000,21.747892 2199.000000,25.880358 2199.000000,30.012823 
	C2199.000000,34.281902 2199.000000,38.550980 2199.000000,43.054722 
	C2201.410889,42.935341 2203.143066,42.849571 2205.125488,42.751408 
	C2205.125488,39.565720 2205.125488,36.931873 2205.125488,34.298027 
	C2205.501709,34.010639 2205.877930,33.723251 2206.254150,33.435867 
	C2207.509277,34.646881 2208.997070,35.696133 2209.973389,37.100922 
	C2212.387207,40.574066 2213.955811,45.352222 2219.950439,42.196030 
	C2218.216553,39.368267 2216.484375,36.543140 2214.805908,33.805752 
	C2218.048584,30.285086 2221.389648,27.710636 2219.271729,22.326218 
	C2217.784424,18.546251 2215.574707,17.239805 2211.130127,17.000166 
z"/>
<path fill="#197DE1" opacity="1.000000" stroke="none" 
	d="
M2211.579590,17.000576 
	C2215.574707,17.239805 2217.784424,18.546251 2219.271729,22.326218 
	C2221.389648,27.710636 2218.048584,30.285086 2214.805908,33.805752 
	C2216.484375,36.543140 2218.216553,39.368267 2219.950439,42.196030 
	C2213.955811,45.352222 2212.387207,40.574066 2209.973389,37.100922 
	C2208.997070,35.696133 2207.509277,34.646881 2206.254150,33.435867 
	C2205.877930,33.723251 2205.501709,34.010639 2205.125488,34.298027 
	C2205.125488,36.931873 2205.125488,39.565720 2205.125488,42.751408 
	C2203.143066,42.849571 2201.410889,42.935341 2199.000000,43.054722 
	C2199.000000,38.550980 2199.000000,34.281902 2199.000000,30.012823 
	C2199.000000,25.880358 2199.000000,21.747892 2199.000000,17.000166 
	C2203.259033,17.000166 2207.194580,17.000166 2211.579590,17.000576 
M2206.668945,22.024166 
	C2205.946533,24.141874 2205.223877,26.259584 2204.305664,28.950203 
	C2207.333984,28.950203 2209.416260,29.525148 2210.804932,28.789919 
	C2212.218994,28.041388 2213.206787,26.094524 2213.788818,24.461327 
	C2213.925049,24.079823 2211.757324,22.653046 2210.483154,22.073608 
	C2209.667480,21.702795 2208.546143,22.004187 2206.668945,22.024166 
z"/>
<path fill="#000000" opacity="1.000000" stroke="none" 
	d="
M2207.115479,22.014179 
	C2208.546143,22.004187 2209.667480,21.702795 2210.483154,22.073608 
	C2211.757324,22.653046 2213.925049,24.079823 2213.788818,24.461327 
	C2213.206787,26.094524 2212.218994,28.041388 2210.804932,28.789919 
	C2209.416260,29.525148 2207.333984,28.950203 2204.305664,28.950203 
	C2205.223877,26.259584 2205.946533,24.141874 2207.115479,22.014179 
z"/>
</svg>