<svg xmlns:dc="http://purl.org/dc/elements/1.1/" xmlns:cc="http://creativecommons.org/ns#" xmlns:rdf="http://www.w3.org/1999/02/22-rdf-syntax-ns#" xmlns:svg="http://www.w3.org/2000/svg" xmlns="http://www.w3.org/2000/svg" id="Calque_1" data-name="Calque 1" width="1045.71" height="600.05" viewBox="0 0 1045.71 600.05" version="1.1">
  <metadata id="metadata59">
    <rdf:RDF>
      <cc:Work rdf:about="">
        <dc:format>image/svg+xml</dc:format>
        <dc:type rdf:resource="http://purl.org/dc/dcmitype/StillImage"/>
        <dc:title/>
      </cc:Work>
    </rdf:RDF>
  </metadata>
  <defs id="defs4">
    <style id="style2">
      .cls-1 {
        fill: #8cc540;
      }

      .cls-2 {
        fill: #fff;
      }
    </style>
  </defs>
  <path class="cls-1" d="M 911.69,0.45 C 982.48,-0.79 1046.18,57.92 1045.69,135.18 1045.23,210.04 983.21,268.93 910.23,268.18 837.25,267.43 776.76,206.35 777.72,132.18 778.66,61.17 837.94,-0.61 911.69,0.45 Z M 911.88,67.88 A 66,66 0 0 0 845.36,134 C 845.22,172.81 876.96,200.23 911.04,200.57 945.46,200.92 977.96,173.57 978.11,134.32 A 66.15,66.15 0 0 0 911.88,67.88 Z" id="path6" style="fill:#5cc540;fill-opacity:1"/>
  <path class="cls-2" d="M 214.31,242.76 A 63.77,63.77 0 0 0 219.59,270.49 C 226.27,285.73 237.59,296.02 253.67,300.32 273.83,305.7 293.76,304.47 312.46,294.99 319.61,291.37 325.64,285.53 332.14,280.65 A 41.89,41.89 0 0 0 335.54,277.5 C 349.38,291 363.08,304.34 377.02,317.92 367.22,327.92 356.75,336.86 344.8,343.92 328.01,353.92 309.68,358.7 290.34,360.3 270.1,361.97 250.04,361.07 230.34,355.88 192.93,345.99 168.46,322.18 156.09,285.72 150.33,268.72 147.82,251.12 147.09,233.26 146.16,210.69 147.61,188.34 153.98,166.51 159.51,147.51 168.17,130.3 181.78,115.78 198.06,98.4 218.11,88.01 241.46,83.89 264.34,79.89 286.98,80.89 308.95,88.63 341.35,100 362.63,122.83 374.86,154.49 381.6,171.92 384.39,190.12 384.77,208.71 384.97,218.21 384.77,227.71 384.77,237.2 V 242.72 Z M 317.52,195.76 C 316.22,174.76 311.09,156.11 291.91,145.31 274.04,135.25 255.31,135.53 237.91,146.44 220.08,157.59 215.44,175.79 214.13,195.76 Z" id="path8"/>
  <path class="cls-2" d="M 550,357.88 H 496.39 L 395.92,85.27 H 467.92 Q 495.27,168.27 522.71,251.59 L 523.71,251.52 Q 550.83,168.42 578,85.25 H 650 Z" id="path10"/>
  <path class="cls-2" d="M 118.21,300.06 V 357.54 C 97.64,358.12 77.31,359.67 57.26,355.42 25.11,348.61 5.36,324.31 1,293 A 117.68,117.68 0 0 1 0,277.1 Q 0,141.62 0,6.13 V 0 H 68.17 V 6.71 Q 68.17,139.45 68.17,272.17 A 66.45,66.45 0 0 0 68.59,280.17 C 70.23,293.64 77.12,299.84 90.8,300.05 98.13,300.17 105.46,300.05 112.8,300.05 Z" id="path12"/>
  <path class="cls-2" d="M 684.47,85.25 H 752.12 V 357.77 H 684.47 Z" id="path14"/>
  <path class="cls-2" d="M 4.3,427.76 C 15.65,427.76 26.78,427.31 37.85,427.91 46.46,428.37 53.17,432.78 55.59,441.57 58.07,450.57 56.17,458.41 46.37,465.05 47.66,465.28 48.5,465.18 49,465.54 56.89,471.31 59.52,479.14 56.92,488.82 A 18.8,18.8 0 0 1 39.47,503 C 27.87,503.59 16.23,503.15 4.3,503.15 Z M 16.11,470.21 V 492.37 C 17.48,492.5 18.6,492.69 19.71,492.69 25.21,492.69 30.71,492.91 36.2,492.47 42.3,491.97 46.04,487.36 46,481.27 45.96,475.18 42.07,470.68 35.91,470.27 29.47,469.9 23,470.21 16.11,470.21 Z M 16.03,459.21 C 22.77,459.21 29.09,459.52 35.36,459.12 A 9.86,9.86 0 0 0 44.83,449.3 C 45.05,443.61 41.83,438.98 35.98,438.45 29.44,437.86 22.8,438.31 16.03,438.31 Z" id="path16"/>
  <path class="cls-2" d="M 242.55,452.8 V 503 H 231.17 V 427.66 H 241.59 L 275.15,478.54 276.02,478.29 V 427.8 H 287.59 V 503.05 H 277 C 266,486.39 254.91,469.49 243.79,452.58 Z" id="path18"/>
  <path class="cls-2" d="M 280.88,548.41 V 599 H 269.49 V 524.2 H 280.31 C 291.03,540.46 302.09,557.2 313.15,573.97 314.94,568.66 314.37,563.33 314.47,558.05 314.57,552.39 314.47,546.73 314.47,541.05 V 524.15 H 325.8 V 599 H 315.36 L 282,548.15 Z" id="path20"/>
  <path class="cls-2" d="M 209.05,524 V 555.29 H 239 V 524.14 H 250.82 V 598.87 H 239.26 V 566.56 H 209.13 V 598.94 H 197.51 V 524 Z" id="path22"/>
  <path class="cls-2" d="M 592,546.49 H 581.33 C 580.62,544.98 579.9,543.33 579.07,541.73 A 15,15 0 0 0 563.76,533.64 C 556.86,534.55 552.49,538.35 550.76,544.94 A 6.43,6.43 0 0 0 550.37,546.38 C 550.37,556.51 549.6,566.74 550.67,576.76 551.74,586.78 561.79,591.9 571.32,588.17 577.16,585.89 580.23,581.4 580.93,575.29 A 66,66 0 0 0 580.93,568.34 H 565.23 V 558.61 H 592.62 C 592.86,566.13 593.43,573.61 591.62,580.91 588.75,592.54 577.28,600.43 564.38,599.91 552.16,599.42 539.5,591.91 538.5,576.5 A 240.88,240.88 0 0 1 538.5,546.58 C 539.5,529.58 555.6,520.42 571.69,523.7 581.96,525.8 588.32,532.22 591.64,541.93 A 15.33,15.33 0 0 1 592.26,544.85 6.86,6.86 0 0 1 592,546.49 Z" id="path24"/>
  <path class="cls-2" d="M 397.09,561.54 C 396.79,566.54 396.38,571.36 396.24,576.18 395.86,589.73 383.92,600.25 368.66,599.87 354.41,599.53 342.89,589.06 342.77,575.38 342.68,565.38 342.29,555.38 343.06,545.48 344.11,532.05 355.41,522.98 369.69,523.07 383.97,523.16 394.77,532.34 396.11,545.77 396.64,551.06 396.78,556.39 397.09,561.54 Z M 385.39,561.54 C 384.92,556.02 384.83,550.33 383.88,544.78 382.72,538.02 376.31,533.35 369.36,533.45 362.41,533.55 356.13,538.24 355.05,545.06 A 102,102 0 0 0 355.05,577.87 C 356.24,585.03 362.25,589.33 369.88,589.22 377.15,589.11 382.88,584.64 383.96,577.58 384.79,572.35 384.93,567 385.39,561.54 Z" id="path26"/>
  <path class="cls-2" d="M 524.09,561.4 C 524.09,565.89 524.18,570.4 524.09,574.87 523.71,591.73 509.33,600.69 495.69,599.79 481.3,598.79 471.85,590.57 470.61,576.21 A 189,189 0 0 1 470.93,544.83 C 471.85,533.57 479.17,526.96 489.7,524.06 A 27.71,27.71 0 0 1 512.7,527.44 23.11,23.11 0 0 1 523.94,546.44 C 524.24,551.44 524,556.44 524,561.44 Z M 513.09,561.4 C 512.74,556.61 512.55,551.78 512.01,547 511.11,539 505.66,533.93 497.83,533.48 490.46,533.06 483.37,538 482.73,545.78 A 187.29,187.29 0 0 0 482.73,577.11 C 483.44,585.32 490.02,589.62 498.31,589.21 505.68,588.85 511.13,583.65 512,575.87 512.56,571.09 512.74,566.27 513.09,561.41 Z" id="path28"/>
  <path class="cls-2" d="M 317.21,492.56 H 353.07 V 503 H 305.27 V 427.79 H 353.17 V 437.9 H 317.26 V 459.9 H 347.82 V 470.04 H 317.21 Z" id="path30"/>
  <path class="cls-2" d="M 81.74,566.09 V 588.55 H 117.89 V 598.88 H 70.35 V 524 H 117.89 V 534.08 H 81.89 V 555.8 H 112.64 V 566.09 Z" id="path32"/>
  <path class="cls-2" d="M 113.83,427.54 H 125 A 30.73,30.73 0 0 1 125.49,431.36 C 125.49,446.68 125.63,462 125.49,477.36 125.37,489.71 119.15,498.58 108.43,502.36 96.72,506.47 83.78,503.26 76.53,494.46 A 22.46,22.46 0 0 1 71.09,480.26 C 70.92,463.26 71.03,446.26 71.09,429.26 A 6.85,6.85 0 0 1 71.54,427.66 H 82.84 V 433.27 C 82.84,448.09 82.78,462.91 82.84,477.74 82.9,488.03 89.64,494.12 99.84,493.32 108.34,492.65 113.67,486.53 113.76,476.87 113.89,463.38 113.76,449.87 113.76,436.39 113.84,433.6 113.83,430.8 113.83,427.54 Z" id="path34"/>
  <path class="cls-2" d="M 135,494.71 143.09,486.41 C 149.55,492.6 157.51,494.19 166.09,493.15 171.31,492.52 175.77,490.51 177.38,484.84 178.99,479.17 176.19,473.55 170.38,471.94 167.2,471.06 163.84,470.8 160.57,470.22 157.79,469.72 154.97,469.34 152.27,468.58 144.59,466.42 139.27,461.74 138.12,453.58 136.83,444.77 138.88,437.04 146.45,431.47 155.75,424.61 177.8,425.14 186.16,435.31 L 178.71,442.24 C 174.03,438.41 167.82,436.62 160.93,437.24 155.05,437.77 151.13,440.65 149.68,445.55 148.11,450.81 149.91,455.42 155.04,457.39 158.71,458.8 162.74,459.27 166.63,460.1 168.09,460.41 169.63,460.51 171.05,460.81 183.5,463.4 189.28,469.81 189.47,481.35 189.64,491.86 183.35,500.07 172.11,502.73 159.8,505.64 147.96,504.6 137.6,496.3 A 21,21 0 0 0 135,494.71 Z" id="path36"/>
  <path class="cls-2" d="M 426.09,494 433.37,486.27 C 439.89,492.68 447.87,494.12 456.46,493.2 464.23,492.37 468.55,487.69 468.06,480.92 467.73,476.46 465.57,473.28 461.22,472.12 457.86,471.23 454.35,470.88 450.92,470.25 A 76.67,76.67 0 0 1 442.62,468.58 C 433.56,465.85 428.92,460.28 428.17,451.58 427.35,441.99 431.53,434.13 439.42,429.92 448.14,425.26 468.09,425.35 476.58,435.26 L 469,442.1 C 464.5,438.47 458.33,436.62 451.44,437.2 447.23,437.56 443.66,439.11 441.28,442.69 437.68,448.13 439.7,455.28 445.83,457.59 449.51,458.98 453.57,459.37 457.47,460.15 459.59,460.58 461.76,460.77 463.86,461.27 471.57,463.08 477.16,467.27 479.07,475.34 481.07,483.92 479.54,491.57 472.73,497.64 461.5,507.62 434.45,505.75 426.09,494 Z" id="path38"/>
  <path class="cls-2" d="M 371.07,486.27 C 377.81,492.86 385.86,494.14 394.44,493.13 401.65,492.28 406.05,487.63 405.82,481.54 405.62,476.11 402.37,472.44 396.6,471.4 392.34,470.64 388.03,470.22 383.78,469.4 371.95,467.2 366.07,460.84 365.84,450.21 365.58,438.44 371.5,430.21 382.97,427.83 393.17,425.72 403.21,426.42 411.97,433.12 412.88,433.81 413.83,434.46 414.97,435.3 L 407.06,442.61 C 401.89,438.23 395.47,436.54 388.43,437.23 382.2,437.84 377.73,441.88 377.14,447.37 376.61,452.37 379.03,456.37 384.26,458 A 96.36,96.36 0 0 0 395.01,460.12 C 396.32,460.37 397.65,460.49 398.95,460.75 411.3,463.3 416.85,469.36 417.31,480.75 417.76,491.55 411.51,499.95 400.04,502.66 387.73,505.58 375.88,504.53 365.53,496.2 364.75,495.58 363.92,495.02 363.33,494.59 Z" id="path40"/>
  <path class="cls-2" d="M 183.07,546.13 H 171.77 C 171.24,544.94 170.77,543.74 170.19,542.57 167.19,536.23 161.36,532.81 154.96,533.64 147.62,534.64 142.51,538.64 141.96,545.94 A 231.52,231.52 0 0 0 141.96,576.77 C 142.41,583.84 147.34,588.17 153.74,589.12 161.04,590.2 166.92,587.12 170.15,580.54 170.73,579.36 171.2,578.13 171.96,576.39 H 183.2 C 182,586 177.6,593 169.48,596.85 158.93,601.85 148.48,601.05 138.89,593.85 133.71,589.97 130.3,584.68 130.07,578.25 129.67,566.97 129.44,555.63 130.15,544.38 130.79,534.18 138.92,526.38 149.79,523.77 164.79,520.19 178.66,528.11 182.57,542.45 A 31.35,31.35 0 0 1 183.07,546.13 Z" id="path42"/>
  <path class="cls-2" d="M 633.84,599.06 H 622 C 622,593.48 621.58,588.06 622.09,582.63 623.09,572.44 620.38,563.5 615.28,554.72 609.86,545.4 605.42,535.51 600.57,525.86 600.22,525.16 600,524.38 599.57,523.39 H 612.06 L 627.77,556.15 643.46,523.49 H 656.26 C 652.53,531 649,538 645.4,545.11 641.59,552.68 636.4,559.91 634.4,567.93 632.49,575.44 633.89,583.79 633.84,591.78 633.83,594.07 633.84,596.37 633.84,599.06 Z" id="path44"/>
  <path class="cls-2" d="M 25,534.21 H 4.34 V 524 H 56.92 V 534.14 H 36.55 V 599 H 25 Z" id="path46"/>
  <path class="cls-2" d="M 413.22,524 H 424.09 V 588.51 H 460.14 V 599 H 413.22 Z" id="path48"/>
  <path class="cls-2" d="M 213.46,503.12 H 202.46 V 427.82 H 213.46 Z" id="path50"/>
  <path class="cls-2" d="M 532.22,487.59 V 470.23 H 514.69 V 461.33 H 532.19 V 443.82 H 541.52 V 461.08 H 559.36 V 469.9 H 541.89 V 487.59 Z" id="path52" style="fill:#5cc540;fill-opacity:1"/>
</svg>